<svg width="82" height="92" viewBox="0 0 82 92" fill="none" xmlns="http://www.w3.org/2000/svg">
<path d="M5.06565 78.3947C-0.667931 77.0501 0.149318 66.6712 1.53789 60.7503C6.39092 40.0566 10.8139 22.3324 16.3115 1.47987C16.3328 1.3988 16.3705 1.32301 16.4221 1.25737C16.4738 1.19174 16.5382 1.1377 16.6113 1.09874C16.6838 1.05911 16.7635 1.03545 16.8453 1.02932C16.927 1.02319 17.009 1.03473 17.0858 1.06317C21.4615 2.64608 25.9521 3.88649 30.5189 4.77367C30.5966 4.78936 30.6703 4.82079 30.7357 4.86611C30.8011 4.91142 30.8567 4.9697 30.8994 5.0375C30.9421 5.10531 30.971 5.18127 30.9843 5.26089C30.9976 5.34052 30.995 5.42219 30.9768 5.50111C25.6861 28.061 20.2165 51.3839 14.6016 68.0346C11.9867 75.7891 8.77947 79.2657 5.06565 78.3947ZM17.2898 2.41908C11.8701 22.9853 7.49464 40.5521 2.6942 61.0215C1.49665 66.1279 0.509642 76.0835 5.34443 77.2173C8.37406 77.9278 11.1027 74.7088 13.482 67.6523C19.029 51.2115 24.4461 28.1809 29.6854 5.84005C25.4778 4.99221 21.3352 3.84897 17.2873 2.41849L17.2898 2.41908Z" fill="white"/>
<path d="M49.9931 90.636C42.072 88.7783 30.1863 84.047 28.5 72.2831C27.0407 62.1049 32.0344 49.4818 42.9222 45.9788C43.5494 45.7766 44.2028 45.6022 44.8337 45.4307C46.8667 44.8868 48.7845 44.37 50.1206 43.0021C51.0913 42.0087 51.6502 40.6236 52.1373 39.2894C54.0062 34.1393 55.3635 28.8183 56.1897 23.4024C56.2027 23.3185 56.2333 23.2383 56.2796 23.1671C56.3258 23.0958 56.3867 23.0351 56.4582 22.9889C56.5292 22.9419 56.6097 22.9108 56.694 22.8978C56.7784 22.8849 56.8646 22.8904 56.9467 22.9139C61.2957 24.1017 65.5877 25.1381 71.9788 26.6369C72.0576 26.6557 72.1319 26.69 72.1973 26.7378C72.2626 26.7857 72.3178 26.846 72.3593 26.9153C72.4009 26.9847 72.4282 27.0615 72.4395 27.1414C72.4507 27.2213 72.4458 27.3026 72.425 27.3805C71.1601 32.066 70.2914 36.8495 69.828 41.6811C69.6252 43.7994 69.5015 46.2071 70.5934 48.1093C71.2087 49.1768 72.155 50.0051 73.1592 50.8769C73.4303 51.1137 73.7008 51.3532 73.9629 51.5933C80.9207 57.9765 83.3361 68.9069 79.7049 77.5773C76.0736 86.2476 66.5844 92.2256 57.1427 91.7793C54.7341 91.5805 52.3439 91.1983 49.9931 90.636ZM57.2809 24.2513C56.4359 29.5165 55.0942 34.6896 53.2736 39.7021C52.7416 41.1584 52.1257 42.6818 50.988 43.8418C49.4224 45.4456 47.2493 46.0297 45.1517 46.5937C44.5329 46.7599 43.8968 46.9302 43.2964 47.1224C33.0148 50.4319 28.3067 62.4289 29.6959 72.1169C31.7202 86.2234 50.7033 90.2773 57.1963 90.5871C66.148 91.0105 75.1436 85.3499 78.5917 77.124C82.0397 68.898 79.744 58.5372 73.1494 52.4855C72.8912 52.2517 72.6272 52.0192 72.3652 51.7899C71.331 50.884 70.264 49.9434 69.5527 48.6936C68.2813 46.5003 68.4121 43.8534 68.63 41.5545C69.0786 36.8664 69.9028 32.2225 71.0948 27.6668C65.3365 26.3137 61.298 25.3341 57.2809 24.2513Z" fill="white"/>
<path d="M80.3925 67.7593C61.2619 64.2173 39.7555 58.6892 32.0115 55.7218C29.4424 60.5979 28.458 66.1527 29.195 71.6154C31.4618 87.5307 53.4383 90.4963 57.3058 90.6793C66.5551 91.1119 75.7719 85.2875 79.3375 76.7579C80.4859 73.9663 81.047 70.9684 80.9859 67.9502C80.7928 67.8728 80.5945 67.809 80.3925 67.7593Z" fill="white"/>
<path d="M50.1202 90.0969C42.1999 88.2395 30.3161 83.5063 28.6368 71.7149C27.8896 66.1407 28.8932 60.4746 31.5093 55.4971C31.5782 55.3672 31.6924 55.267 31.8304 55.2154C31.9683 55.1638 32.1205 55.1642 32.2582 55.2167C39.7304 58.0793 60.877 63.576 80.4404 67.2003C80.6139 67.2367 80.7841 67.2875 80.9491 67.3522C81.0059 67.3655 81.0616 67.3949 81.1178 67.4108C81.2364 67.4515 81.3395 67.5277 81.4132 67.629C81.4869 67.7303 81.5274 67.8518 81.5294 67.9769C81.5951 71.07 81.0191 74.1426 79.8375 77.0016C76.1998 85.7003 66.7085 91.6908 57.2662 91.2516C54.8585 91.0485 52.4695 90.6625 50.1202 90.0969ZM32.3329 56.5344C30.0168 61.1752 29.1462 66.4029 29.8334 71.5449C31.8462 85.6865 50.83 89.7395 57.321 90.043C66.2721 90.4647 75.2745 84.783 78.7244 76.537C79.7872 73.9606 80.3293 71.1996 80.3194 68.4124C80.2865 68.4021 80.2529 68.3942 80.2188 68.3888C61.0183 64.8305 40.2663 59.4617 32.3329 56.5344Z" fill="white"/>
<path d="M54.1849 68.8805L54.1698 68.8769L45.0977 66.5672C44.9458 66.5283 44.8129 66.4437 44.728 66.332C44.643 66.2202 44.6131 66.0904 44.6447 65.971C44.6798 65.8535 44.7715 65.7565 44.9006 65.7001C45.0298 65.6438 45.1864 65.6325 45.3377 65.6687L54.4103 67.9765C54.5543 68.0195 54.6785 68.1037 54.7575 68.212C54.8366 68.3203 54.8646 68.4446 54.836 68.5596C54.8073 68.6747 54.7241 68.7718 54.6032 68.8314C54.4823 68.891 54.3327 68.9086 54.1849 68.8805Z" fill="white"/>
<path d="M52.604 75.3313L44.1577 72.9357C44.0833 72.9146 44.014 72.8781 43.9537 72.8282C43.8934 72.7783 43.8433 72.7161 43.8063 72.645C43.7693 72.574 43.7462 72.4955 43.7381 72.4141C43.7301 72.3327 43.7374 72.25 43.7595 72.1707C43.7807 72.0907 43.8166 72.0155 43.8652 71.9495C43.9138 71.8836 43.9742 71.8282 44.0427 71.7867C44.1112 71.7452 44.1864 71.7183 44.264 71.7077C44.3416 71.6972 44.42 71.7031 44.4946 71.7251L52.9402 74.1234C53.0913 74.1626 53.2197 74.264 53.2973 74.4055C53.375 74.5471 53.3954 74.717 53.3541 74.8779C53.3129 75.0389 53.2133 75.1777 53.0773 75.2638C52.9414 75.3499 52.7801 75.3763 52.6291 75.3372L52.604 75.3313Z" fill="white"/>
<path d="M51.8798 80.8464C48.8676 80.12 45.8405 79.2708 42.8924 78.3291C42.8164 78.3049 42.7459 78.2654 42.685 78.2127C42.6242 78.1601 42.5742 78.0953 42.5378 78.0222C42.5015 77.9491 42.4795 77.8691 42.4732 77.7867C42.4669 77.7043 42.4763 77.6211 42.501 77.5419C42.5257 77.4627 42.5651 77.3891 42.617 77.3252C42.6689 77.2613 42.7323 77.2084 42.8036 77.1695C42.8748 77.1306 42.9525 77.1065 43.0323 77.0986C43.112 77.0906 43.1922 77.099 43.2683 77.1232C46.2014 78.0585 49.2 78.9011 52.1863 79.6213C52.3431 79.6581 52.4784 79.7581 52.5622 79.8994C52.6461 80.0407 52.6718 80.2116 52.6335 80.3747C52.5953 80.5377 52.4963 80.6794 52.3584 80.7686C52.2205 80.8579 52.0548 80.8874 51.898 80.8506L51.8798 80.8464Z" fill="white"/>
<path d="M21.7562 39.6732C17.1786 38.4489 12.5182 37.2805 7.90266 36.2177C7.74895 36.1817 7.61905 36.0724 7.54153 35.914C7.46401 35.7556 7.44523 35.561 7.48932 35.373C7.5334 35.185 7.63675 35.019 7.77661 34.9116C7.91647 34.8042 8.0814 34.7641 8.23511 34.8001C12.8582 35.8647 17.5321 37.0329 22.1217 38.2634C22.2748 38.3019 22.4034 38.4134 22.479 38.5732C22.5547 38.733 22.5713 38.9281 22.5252 39.1157C22.4791 39.3032 22.3741 39.4677 22.2332 39.5731C22.0923 39.6784 21.9271 39.7159 21.774 39.6774L21.7562 39.6732Z" fill="white"/>
<path d="M16.0779 5.36618C16.0455 5.35817 16.0178 5.33461 15.9992 5.29916C15.9805 5.26371 15.9719 5.21836 15.9748 5.17021C16.0841 3.64462 16.3689 2.11108 16.8179 0.629782C16.8349 0.57452 16.8659 0.527318 16.904 0.498511C16.9421 0.469703 16.9842 0.461641 17.0212 0.476095C17.0581 0.490735 17.0867 0.526674 17.1008 0.576054C17.1149 0.625433 17.1134 0.684214 17.0965 0.739525C16.6612 2.1765 16.3852 3.66406 16.2792 5.14389C16.2774 5.17223 16.2716 5.20077 16.2621 5.22785C16.2527 5.25493 16.2399 5.28002 16.2243 5.30168C16.2087 5.32335 16.1908 5.34115 16.1714 5.35409C16.1521 5.36702 16.1318 5.37481 16.1117 5.37703C16.0997 5.37619 16.0883 5.37253 16.0779 5.36618Z" fill="white"/>
<path d="M18.3838 5.34238C18.3615 5.33692 18.3418 5.3225 18.3267 5.30062C18.3116 5.27874 18.3017 5.25018 18.298 5.21792C18.2136 4.41098 18.3129 3.53727 18.5821 2.71796C18.5983 2.66952 18.626 2.62883 18.6593 2.60485C18.6927 2.58086 18.7288 2.57554 18.7597 2.59007C18.7907 2.6046 18.814 2.63778 18.8245 2.68231C18.835 2.72683 18.8318 2.77905 18.8156 2.82749C18.5712 3.56801 18.4807 4.3583 18.5567 5.08819C18.5604 5.13442 18.5515 5.18434 18.5317 5.22803C18.5119 5.27172 18.4827 5.30597 18.4499 5.32398C18.4282 5.33763 18.4055 5.34394 18.3838 5.34238Z" fill="white"/>
<path d="M56.9793 33.7219C56.9358 33.7118 56.898 33.6845 56.8736 33.6456C56.8492 33.6066 56.84 33.559 56.848 33.5123C57.0713 32.1577 57.4384 30.83 57.9424 29.5545C57.9617 29.5104 57.9964 29.4754 58.039 29.457C58.0817 29.4387 58.1291 29.4383 58.1711 29.456C58.2131 29.4737 58.2466 29.5081 58.2644 29.5519C58.2822 29.5957 58.283 29.6456 58.2666 29.6909C57.7737 30.9409 57.4145 32.2416 57.1957 33.5687C57.1916 33.5929 57.1831 33.6161 57.1706 33.637C57.1581 33.658 57.1418 33.6762 57.1227 33.6907C57.1037 33.7052 57.0822 33.7156 57.0595 33.7214C57.0368 33.7272 57.0134 33.7283 56.9905 33.7245L56.9793 33.7219Z" fill="white"/>
<path d="M37.509 53.6002C37.486 53.5942 37.464 53.5847 37.4439 53.5719C37.4029 53.5421 37.3752 53.4969 37.367 53.4461C37.3587 53.3954 37.3706 53.3433 37.4 53.3011C38.2386 52.1093 39.3248 51.1186 40.5808 50.3999C40.6021 50.3863 40.6258 50.3771 40.6505 50.3729C40.6752 50.3686 40.7005 50.3693 40.7249 50.375C40.7492 50.3807 40.7722 50.3913 40.7924 50.4061C40.8127 50.421 40.8298 50.4397 40.8428 50.4614C40.8669 50.5062 40.8726 50.5591 40.8586 50.6084C40.8446 50.6578 40.8121 50.6997 40.7682 50.7252C39.5608 51.4187 38.5165 52.3728 37.7096 53.5196C37.6877 53.5518 37.6569 53.5766 37.6212 53.591C37.5854 53.6054 37.5464 53.6086 37.509 53.6002Z" fill="white"/>
<path d="M60.8325 87.4934C60.7933 87.4846 60.7576 87.4643 60.7303 87.4353C60.703 87.4063 60.6855 87.37 60.68 87.3313C60.6754 87.3057 60.6761 87.2795 60.682 87.2543C60.6879 87.2291 60.699 87.2054 60.7145 87.1845C60.73 87.1637 60.7498 87.1461 60.7725 87.1328C60.7952 87.1195 60.8205 87.1108 60.8469 87.1071C63.1521 86.7765 65.3528 85.9783 67.3063 84.7641C69.2598 83.5499 70.9225 81.947 72.1867 80.0592C72.201 80.0369 72.2198 80.0178 72.2421 80.0029C72.2644 79.988 72.2896 79.9777 72.3162 79.9726C72.3429 79.9676 72.3704 79.9678 72.3971 79.9733C72.4238 79.9789 72.4492 79.9896 72.4716 80.0049C72.4951 80.0189 72.5154 80.0373 72.5313 80.0592C72.5472 80.081 72.5583 80.1057 72.5639 80.1318C72.5696 80.1578 72.5696 80.1846 72.5641 80.2105C72.5586 80.2364 72.5475 80.2609 72.5318 80.2823C71.2362 82.2157 69.5327 83.8575 67.5315 85.1012C65.5303 86.3449 63.2761 87.1629 60.9149 87.5022C60.8872 87.5041 60.8593 87.5011 60.8325 87.4934Z" fill="white"/>
<path d="M70.7942 29.0031L70.5103 28.9365L56.716 25.5646C55.3276 25.239 54.3111 24.8948 53.8346 24.3725C53.723 24.2548 53.6377 24.1169 53.5842 23.9674C53.5307 23.818 53.51 23.6603 53.5236 23.5043C53.555 22.766 53.8459 22.065 54.3498 21.5138C54.5431 21.2876 54.7852 21.104 55.0604 20.975C55.3355 20.846 55.6375 20.7745 55.9466 20.7651C56.7028 20.7101 57.6152 20.8828 58.5597 21.0811C63.4917 22.1086 68.4467 23.3636 73.2416 24.581L73.4532 24.6306C74.956 25.0141 75.3 25.9158 75.3696 26.4201C75.5294 27.5497 74.6683 28.7833 74.0297 29.1034C73.3302 29.4739 72.2265 29.339 70.7942 29.0031ZM63.5019 23.3658C61.7754 22.9609 60.0474 22.5737 58.3267 22.2141C57.506 22.0449 56.6573 21.8794 56.0642 21.9236C55.9127 21.9209 55.7634 21.951 55.6275 22.0117C55.4915 22.0724 55.3726 22.1621 55.2796 22.2741C54.9457 22.6356 54.7514 23.0964 54.7277 23.5828C54.7251 23.6024 54.725 23.6223 54.7274 23.6421C54.9481 23.8617 55.7023 24.1289 56.988 24.4511L70.7804 27.8199C71.3197 27.9464 72.9559 28.3533 73.4566 28.0989C73.6703 27.989 74.2754 27.1963 74.1829 26.5575C74.1637 26.4187 74.1027 25.9939 73.1777 25.7589L72.9532 25.7062C69.8475 24.9133 66.6787 24.1108 63.4967 23.3646L63.5019 23.3658Z" fill="white"/>
<path d="M29.5538 8.53042L29.27 8.46387L15.4792 5.09282C14.0938 4.76791 13.077 4.42616 12.6012 3.90143C12.4899 3.78338 12.4047 3.64536 12.3508 3.49592C12.2969 3.34648 12.2755 3.18878 12.2878 3.0326C12.3204 2.29443 12.6113 1.59367 13.114 1.0418C13.3066 0.815247 13.5485 0.631515 13.8237 0.502822C14.0988 0.374129 14.4009 0.303414 14.7099 0.295375C15.4659 0.240272 16.3781 0.412888 17.3229 0.608654C22.2537 1.63589 27.2222 2.89663 32.0164 4.11134L32.2177 4.15854C33.7233 4.54003 34.0645 5.44119 34.1366 5.94615C34.2937 7.07527 33.4327 8.30909 32.7962 8.63236C32.0963 9.00532 30.9909 8.86744 29.5538 8.53042ZM22.2611 2.89259C20.5411 2.48921 18.8165 2.10542 17.0873 1.7412C16.2668 1.57203 15.4151 1.40844 14.8254 1.4509C14.6741 1.44906 14.5251 1.47961 14.3893 1.54027C14.2536 1.60093 14.1345 1.69018 14.0409 1.80145C13.7083 2.16381 13.5142 2.62428 13.489 3.11031C13.4873 3.13002 13.4872 3.14984 13.4887 3.16963C13.7094 3.38923 14.4633 3.65642 15.7487 3.97853L15.8158 3.99426L29.5401 7.34712C30.0767 7.47298 31.7124 7.87981 32.2156 7.62598C32.4287 7.51843 33.0318 6.72253 32.9419 6.08431C32.9202 5.94493 32.8592 5.52005 31.937 5.2857L31.7358 5.23851C28.6303 4.44825 25.45 3.64044 22.2611 2.89259Z" fill="white"/>
<path d="M28.7914 8.06494C28.5836 7.9563 28.3544 7.89513 28.1202 7.88583C26.2778 7.4863 24.4353 7.04065 22.6286 6.50031C21.1563 5.96715 19.6513 5.52904 18.1229 5.1887C17.4432 5.08083 16.7927 4.60551 16.1027 4.71492C14.6327 4.91263 14.573 7.09829 16.0108 7.41922C19.6193 8.42822 23.1734 9.61162 26.8038 10.539L27.2716 10.6487C27.5301 10.8027 27.8271 10.8798 28.1278 10.8711C29.6279 10.8459 30.1255 8.78194 28.7914 8.06494Z" fill="white"/>
<path d="M71.4848 28.8288C71.0288 28.0791 70.1018 28.0543 69.3289 27.8811C67.8567 27.5793 66.3829 27.296 64.9198 26.9556C63.0674 26.5754 61.2616 26.0082 59.4341 25.5335C58.7691 25.4318 58.1223 24.9872 57.4415 25.115C55.9319 25.3197 55.871 27.5566 57.3525 27.8878C60.0484 28.36 62.6309 29.2694 65.265 29.993C66.7776 30.3884 68.283 30.8147 69.8058 31.1664C71.1165 31.509 72.2217 29.9645 71.4848 28.8288Z" fill="white"/>
<path d="M73.8254 83.9925C73.3135 83.4928 72.5801 83.6598 72.0646 84.0542C71.5403 84.3707 71.0055 84.6738 70.4895 84.9895C68.9633 85.8908 67.3381 86.6128 65.6462 87.1409C62.7383 87.9778 62.7192 87.9435 59.8664 88.1289C58.0044 88.3151 56.1268 88.2781 54.2736 88.0188L54.5969 88.0512C52.5667 87.866 50.5601 87.4781 48.6071 86.8933C45.6789 86.071 39.7394 82.7795 37.5632 81.1435C35.164 79.3142 33.5459 77.264 32.1355 75.531C31.0692 74.6896 29.5708 76.0605 30.3158 77.2198C33.438 82.1642 38.5416 85.3546 43.7757 87.6996C48.7651 89.8185 54.1596 90.8132 59.5767 90.6132C62.8767 90.3569 66.1066 89.5255 69.1204 88.1564C70.3673 87.5917 71.5969 86.985 72.7871 86.304C73.1765 86.0427 73.6944 85.9038 73.9587 85.4938C74.1206 85.2694 74.1963 84.994 74.1718 84.7183C74.1473 84.4426 74.0244 84.1849 73.8254 83.9925Z" fill="white"/>
<path d="M11.1657 74.527C11.0588 74.296 10.8722 74.1114 10.64 74.0071C10.4079 73.9028 10.1459 73.8859 9.90228 73.9595C9.22631 74.2864 9.454 74.31 9.14134 74.4753C8.17309 75.1352 8.31423 75.0652 7.5108 75.346C6.58476 75.6062 6.22587 75.5872 5.85818 75.5362C4.99967 75.2887 5.52756 75.5237 4.7023 75.0535C3.53459 74.0664 3.28534 73.8804 2.70305 72.8136C2.62183 72.6811 2.51278 72.5678 2.38345 72.4816C2.25411 72.3955 2.10759 72.3385 1.95404 72.3146C1.80049 72.2907 1.64358 72.3005 1.49418 72.3433C1.34478 72.3861 1.20647 72.4609 1.08883 72.5625C1.15735 72.831 1.24312 73.0948 1.34561 73.3523C1.77957 74.3925 2.13646 75.4608 2.62514 76.4759C3.06204 76.8711 3.54799 77.2084 4.07102 77.4795C5.56897 78.1454 7.30821 77.9674 8.77971 77.3008C9.67935 76.8988 11.7278 75.703 11.1657 74.527Z" fill="white"/>
<path d="M8.56073 44.5374C8.51628 44.5266 8.47779 44.4979 8.45261 44.4569C8.42744 44.416 8.41734 44.3655 8.42426 44.3152C8.7363 42.2515 9.16081 40.2047 9.69547 38.1858C9.71126 38.1344 9.74376 38.0905 9.78657 38.0627C9.82937 38.035 9.87935 38.0255 9.92662 38.036C9.95004 38.0422 9.97188 38.0536 9.99083 38.0694C10.0098 38.0853 10.0255 38.1053 10.037 38.1283C10.0485 38.1513 10.0555 38.1768 10.0578 38.2033C10.06 38.2298 10.0573 38.2568 10.0499 38.2827C9.52029 40.2853 9.09968 42.3156 8.79033 44.3625C8.78648 44.3891 8.77789 44.4149 8.76507 44.4383C8.75225 44.4617 8.73544 44.4823 8.71563 44.499C8.69581 44.5156 8.67337 44.5279 8.64961 44.5351C8.62585 44.5424 8.60124 44.5445 8.57719 44.5413L8.56073 44.5374Z" fill="white"/>
<path d="M11.4114 41.7951C11.3467 41.7799 11.2891 41.7454 11.2511 41.6989C11.213 41.6523 11.1975 41.5975 11.2078 41.5461L11.8269 38.6883C11.839 38.6368 11.8763 38.5934 11.9308 38.5675C11.9853 38.5416 12.0525 38.5353 12.118 38.5499C12.1821 38.5656 12.2387 38.6003 12.2761 38.6466C12.3135 38.6928 12.3286 38.7472 12.3184 38.7982L11.6993 41.6559C11.6938 41.6814 11.6819 41.7053 11.6645 41.726C11.647 41.7468 11.6243 41.7642 11.5975 41.7771C11.5708 41.79 11.5406 41.7983 11.5087 41.8013C11.4767 41.8044 11.4437 41.8023 11.4114 41.7951Z" fill="white"/>
<path d="M10.4984 71.7102L10.4842 71.7068C10.4644 71.6999 10.4462 71.6883 10.4308 71.6727C10.4153 71.6572 10.4029 71.6379 10.3943 71.616C10.3856 71.5941 10.3809 71.5701 10.3804 71.5454C10.3799 71.5206 10.3835 71.4955 10.3912 71.4716L11.2906 68.6621C11.2983 68.6383 11.3098 68.6161 11.3245 68.5968C11.3391 68.5775 11.3567 68.5615 11.3761 68.5497C11.3955 68.5379 11.4164 68.5305 11.4376 68.528C11.4588 68.5255 11.4799 68.5279 11.4996 68.535C11.5194 68.5422 11.5374 68.554 11.5527 68.5697C11.568 68.5855 11.5803 68.6049 11.5888 68.6268C11.5973 68.6487 11.6019 68.6728 11.6023 68.6975C11.6028 68.7223 11.599 68.7474 11.5913 68.7712L10.692 71.5807C10.6772 71.6254 10.6493 71.6634 10.6135 71.6874C10.5777 71.7113 10.5367 71.7194 10.4984 71.7102Z" fill="white"/>
<path d="M65.2708 20.3174C65.1667 20.2951 65.0702 20.2459 64.9912 20.1749C64.9122 20.1039 64.8535 20.0137 64.8209 19.9133C64.4458 18.749 63.9339 17.1463 64.4137 15.6577C64.7586 14.5816 65.5578 13.7519 66.2603 13.0206C67.3428 11.8887 68.3042 10.8549 68.9335 9.6113C69.6215 8.26848 69.7722 6.84807 69.3498 5.73457C69.2959 5.58635 69.3032 5.42342 69.37 5.2811C69.4368 5.13879 69.5577 5.02856 69.7066 4.97427C69.8555 4.91998 70.0203 4.92602 70.1653 4.99108C70.3103 5.05615 70.4239 5.17499 70.4814 5.32187C71.0219 6.75636 70.8515 8.51657 70.015 10.1555C69.3141 11.5303 68.298 12.6347 67.1422 13.8356C66.5007 14.4924 65.8311 15.1991 65.5696 16.0123C65.235 17.0559 65.5563 18.2291 65.9777 19.5441C66.0259 19.6958 66.0115 19.8598 65.9377 20.0003C65.864 20.1408 65.7368 20.2464 65.584 20.294C65.4835 20.3282 65.3756 20.3363 65.2708 20.3174Z" fill="white"/>
<path d="M70.8371 21.62C70.7955 21.6142 70.7546 21.6046 70.7148 21.5914C70.5648 21.5233 70.4477 21.4018 70.3891 21.2532C70.3304 21.1046 70.3349 20.941 70.4015 20.7981C70.768 20.0251 70.4529 19.0601 70.1173 18.0395C69.8188 17.1239 69.5102 16.1792 69.626 15.2189C69.6318 15.1388 69.6546 15.0609 69.6928 14.9901C69.7311 14.9193 69.7841 14.8569 69.8486 14.8068C69.9132 14.7567 69.9879 14.7198 70.0684 14.6985C70.1488 14.6771 70.2333 14.6717 70.3166 14.6826C70.4 14.6935 70.4806 14.7204 70.5535 14.7617C70.6264 14.803 70.6901 14.8579 70.7408 14.9231C70.7914 14.9882 70.828 15.0622 70.8483 15.1407C70.8687 15.2192 70.8722 15.3005 70.8589 15.3796C70.7742 16.0876 71.0331 16.8735 71.3037 17.7049C71.6925 18.8932 72.0964 20.1252 71.5358 21.3076C71.4754 21.4289 71.3733 21.5259 71.2463 21.5827C71.1193 21.6396 70.9749 21.6527 70.8371 21.62Z" fill="white"/>
<path d="M59.5511 18.9762C59.4409 18.9504 59.3406 18.8928 59.262 18.81C59.1834 18.7272 59.1298 18.6227 59.1076 18.5089C58.7691 16.762 59.3428 14.7943 60.6808 13.0993C61.8236 11.6447 63.3228 10.6067 64.7642 9.59918C64.8955 9.50773 65.0561 9.4731 65.2107 9.50291C65.3654 9.53272 65.5013 9.62453 65.5887 9.75814C65.676 9.89174 65.7077 10.0562 65.6766 10.2154C65.6455 10.3745 65.5543 10.5153 65.4231 10.6067C64.0527 11.5621 62.6371 12.551 61.6001 13.8625C60.491 15.2534 60.0067 16.8624 60.2748 18.2488C60.2946 18.3489 60.2893 18.4529 60.2595 18.551C60.2297 18.6491 60.1762 18.7382 60.1042 18.8101C60.0322 18.8819 59.9439 18.934 59.8475 18.9617C59.7511 18.9894 59.6498 18.9917 59.5529 18.9684L59.5511 18.9762Z" fill="white"/>
</svg>
