<svg width="109" height="95" viewBox="0 0 109 95" fill="none" xmlns="http://www.w3.org/2000/svg">
<path d="M25.7975 87.1738C25.6731 87.1439 25.5626 87.0727 25.4834 86.9716C25.4042 86.8706 25.3611 86.7455 25.3608 86.6164C25.3606 86.4873 25.4033 86.3617 25.482 86.2596C25.5608 86.1575 25.6711 86.0848 25.7953 86.0532C29.0267 85.2099 32.3115 84.6998 35.4893 84.216C35.9509 81.7229 36.3753 79.1167 36.7832 76.6002C37.1847 74.1316 37.5966 71.5875 38.0522 69.119C38.0751 68.9935 38.1384 68.879 38.2324 68.7933C38.3264 68.7077 38.4457 68.6557 38.5716 68.6456C40.0417 68.5273 41.4663 68.9163 42.8422 69.2936L43.115 69.3596C47.5266 70.5655 52.0442 71.343 56.6063 71.6818C56.6926 71.6883 56.7762 71.7144 56.8509 71.7582C56.9256 71.802 56.9894 71.8623 57.0376 71.9346C57.0861 72.0071 57.1174 72.09 57.129 72.1768C57.1406 72.2636 57.1323 72.3521 57.1046 72.4353L52.2142 87.3155L52.9395 87.9625C55.0279 89.8172 56.9966 91.57 58.9033 93.4407C58.9913 93.5286 59.0486 93.643 59.0666 93.7668C59.0846 93.8907 59.0623 94.0172 59.003 94.1276C58.9438 94.2379 58.8509 94.3261 58.7381 94.3789C58.6253 94.4317 58.4987 94.4462 58.3774 94.4204C47.5413 92.0376 36.4882 89.5606 25.7992 87.1664L25.7975 87.1738ZM39.0939 69.78C38.677 72.0886 38.2885 74.4717 37.9136 76.7878C37.4821 79.4444 37.0359 82.1939 36.5411 84.8352C36.5192 84.9536 36.4613 85.0624 36.3754 85.1462C36.2894 85.23 36.1798 85.2847 36.0618 85.3027C33.5804 85.679 31.0376 86.0638 28.512 86.6013C37.7724 88.6758 47.2685 90.7994 56.6323 92.8624C55.2034 91.5215 53.7284 90.2112 52.1898 88.8438L51.1798 87.9456C51.0965 87.8707 51.0367 87.773 51.0077 87.6642C50.9786 87.5554 50.9815 87.4403 51.0161 87.3329L55.7873 72.7859C51.4 72.4188 47.0568 71.6484 42.8119 70.4845L42.5366 70.4179C41.4104 70.0958 40.2373 69.7754 39.1018 69.7793L39.0939 69.78Z" fill="white"/>
<path d="M1.26872 62.1077C1.19385 62.09 1.12342 62.0571 1.06172 62.0109C1.00002 61.9647 0.948337 61.9063 0.909841 61.8391C0.871344 61.7719 0.846845 61.6975 0.837822 61.6202C0.828798 61.543 0.835429 61.4647 0.857346 61.3899C6.09148 43.1766 11.5683 20.4507 15.509 0.58412C15.5245 0.507153 15.5553 0.434096 15.5996 0.369399C15.6438 0.304703 15.7006 0.249725 15.7665 0.207819C15.8323 0.165913 15.9058 0.137956 15.9826 0.125653C16.0593 0.113351 16.1376 0.116966 16.2127 0.136268C32.6339 4.45845 49.5019 8.67319 65.813 12.7506C79.7581 16.2345 94.1771 19.8384 107.833 23.3927C107.907 23.4117 107.976 23.4457 108.037 23.4924C108.097 23.5392 108.148 23.5979 108.186 23.665C108.26 23.8006 108.279 23.9611 108.237 24.1111C101.099 48.4922 96.589 65.1457 92.1449 83.5087C92.1271 83.5832 92.0948 83.6534 92.0499 83.7152C92.005 83.777 91.9483 83.8292 91.8833 83.8688C91.7498 83.9418 91.5951 83.9642 91.4472 83.932C72.3227 78.9894 50.9779 73.9327 30.3367 69.0438C20.1509 66.6307 10.5312 64.3493 1.26872 62.1077ZM16.5038 1.40408C12.6082 20.9465 7.25249 43.1719 2.114 61.1279C11.1971 63.3261 20.6284 65.5592 30.6008 67.9207C51.0475 72.7652 72.1808 77.7732 91.1816 82.6756C95.5425 64.6561 100.012 48.1903 106.981 24.3603C93.4997 20.8562 79.2885 17.3053 65.5398 13.8688C49.4124 9.8385 32.7486 5.67059 16.5038 1.40408Z" fill="white"/>
<path d="M77.4172 71.3066C64.4495 68.108 51.5028 64.8331 38.5543 61.5552C27.5977 58.783 15.1662 55.798 4.21984 52.9837C3.3531 56.565 2.70815 59.23 1.79608 61.6887C30.0318 68.5221 63.3481 76.0817 91.6402 83.4322C92.3354 81.2566 92.9784 78.093 93.6425 75.3487C88.8798 74.1856 82.1866 72.4845 77.4172 71.3066Z" fill="white"/>
<path d="M91.4698 83.9375C72.4394 78.9996 51.1934 73.972 30.6476 69.1113C20.5017 66.7104 10.9331 64.4466 1.71407 62.2155C1.63622 62.1968 1.56324 62.1617 1.49992 62.1124C1.43659 62.0631 1.38433 62.0006 1.34659 61.9292C1.30992 61.8576 1.28837 61.7789 1.2833 61.6981C1.27823 61.6173 1.28976 61.5362 1.31714 61.46C2.17387 59.123 2.79032 56.6708 3.70201 52.9037C3.71965 52.8296 3.75177 52.7598 3.79648 52.6983C3.84118 52.6369 3.89757 52.5851 3.96224 52.5461C4.09295 52.4682 4.24784 52.4443 4.39466 52.4794C10.6452 54.0908 17.4558 55.7728 24.0421 57.4005C28.9394 58.6091 34.0026 59.8604 38.6931 61.0475C50.6474 64.0704 64.2039 67.5018 77.5127 70.785C79.4718 71.2592 81.7526 71.8397 84.0912 72.4238C87.4624 73.2683 90.9254 74.1349 93.7284 74.8159C93.8743 74.8512 94 74.944 94.0777 75.0738C94.1555 75.2036 94.1791 75.3599 94.1432 75.5082C93.9497 76.3077 93.7485 77.1391 93.5689 77.9654C93.1147 79.948 92.6438 81.9993 92.1481 83.5409C92.1065 83.6826 92.0128 83.8029 91.8864 83.8768C91.7601 83.9507 91.6108 83.9725 91.4698 83.9375ZM4.65486 53.7366C3.88325 56.9249 3.31357 59.1522 2.58308 61.2419C11.6115 63.4269 20.9877 65.6415 30.899 67.9883C51.2638 72.8052 72.3144 77.7855 91.2211 82.6857C91.6431 81.2586 92.0546 79.463 92.455 77.7244C92.6111 77.0794 92.7503 76.4303 92.9004 75.7994C90.1885 75.143 86.9433 74.3265 83.7982 73.5394C81.4602 72.9528 79.1795 72.3827 77.2227 71.8987C63.9019 68.6126 50.3521 65.1854 38.3959 62.1594C33.7078 60.9729 28.6464 59.7246 23.7521 58.5142C17.3607 56.9362 10.7527 55.3033 4.65486 53.7366Z" fill="white"/>
<path d="M54.5552 76.726C54.5153 76.7424 54.4766 76.7644 54.4349 76.7777C54.7112 76.6751 54.6948 76.679 54.5552 76.726Z" fill="white"/>
<path d="M54.8772 74.251C53.8678 73.7459 52.694 73.6444 51.6115 73.3354C51.4321 73.292 51.2528 73.2486 51.0758 73.2058C47.2335 72.4037 43.3573 71.7733 39.5728 70.7323C39.5297 70.842 39.5018 70.9573 39.49 71.0747C39.3572 71.0975 39.2295 71.1443 39.1127 71.2128C38.1241 71.7351 38.3975 73.2877 39.5258 73.5242C42.313 74.3917 45.1272 75.1797 47.9521 75.9234C50.4123 76.6152 51.6181 76.8601 53.6649 76.9278C53.909 76.9114 54.1515 76.8741 54.3898 76.8164L54.5609 76.7457C54.7802 76.6699 54.9831 76.5516 55.1584 76.3974C55.318 76.2552 55.4408 76.0754 55.5156 75.874C55.5905 75.6726 55.6151 75.4559 55.5872 75.2432C55.5594 75.0306 55.4799 74.8287 55.356 74.6555C55.2321 74.4823 55.0676 74.3433 54.8772 74.251Z" fill="white"/>
<path d="M94.3892 31.627L76.4703 27.2904C76.421 27.2785 76.3804 27.2398 76.3572 27.183C76.3341 27.1261 76.3305 27.0557 76.347 26.9873C76.3636 26.9188 76.399 26.8579 76.4456 26.8179C76.4922 26.7779 76.546 26.7621 76.5953 26.7741L94.5142 31.1107C94.5635 31.1226 94.6041 31.1612 94.6273 31.2181C94.6504 31.2749 94.6541 31.3453 94.6375 31.4138C94.6209 31.4823 94.5855 31.5432 94.5389 31.5832C94.4923 31.6232 94.4385 31.6389 94.3892 31.627Z" fill="white"/>
<path d="M91.7651 42.4699L73.8462 38.1332C73.7969 38.1213 73.7563 38.0827 73.7331 38.0258C73.71 37.969 73.7063 37.8986 73.7229 37.8301C73.7395 37.7616 73.7749 37.7007 73.8215 37.6607C73.868 37.6207 73.9219 37.605 73.9712 37.6169L91.8901 41.9535C91.9394 41.9654 91.98 42.0041 92.0032 42.0609C92.0263 42.1178 92.03 42.1882 92.0134 42.2566C91.9968 42.3251 91.9614 42.386 91.9148 42.426C91.8682 42.466 91.8144 42.4818 91.7651 42.4699Z" fill="white"/>
<path d="M93.015 37.3067L79.1601 33.9536C79.1109 33.9417 79.0702 33.9032 79.0471 33.8467C79.0239 33.7902 79.0202 33.7202 79.0366 33.6522C79.0532 33.5839 79.0885 33.523 79.135 33.4828C79.1815 33.4425 79.2354 33.4262 79.285 33.4373L93.1399 36.7903C93.1892 36.8032 93.2296 36.8424 93.2526 36.8994C93.2755 36.9564 93.2791 37.0267 93.2626 37.0951C93.2461 37.1631 93.2108 37.2236 93.1643 37.2633C93.1179 37.303 93.0642 37.3186 93.015 37.3067Z" fill="white"/>
<path d="M42.8361 23.6221L35.8772 21.8389L22.9194 43.2985L28.5486 44.6295L31.8328 39.5238L38.217 41.1106L38.3836 46.8872L44.2643 48.4381L42.8361 23.6221ZM34.1798 34.4077L37.957 28.3236L38.7776 35.5986L34.1798 34.4077Z" fill="white"/>
<path d="M22.3432 43.7056C22.254 43.6841 22.1712 43.6419 22.1015 43.5824C22.0318 43.5229 21.9772 43.4479 21.9421 43.3634C21.9071 43.2789 21.8927 43.1873 21.9 43.0963C21.9073 43.0052 21.9362 42.9172 21.9842 42.8395L35.0521 21.5062C35.1136 21.3976 35.2101 21.3129 35.3261 21.266C35.4421 21.2191 35.5707 21.2127 35.691 21.2479L42.7806 23.0649C42.8984 23.096 43.0035 23.1632 43.081 23.257C43.1584 23.3508 43.2043 23.4664 43.2122 23.5876L44.8 48.343C44.8052 48.4321 44.7892 48.5211 44.7531 48.6027C44.717 48.6843 44.662 48.7561 44.5926 48.8123C44.5212 48.8683 44.4381 48.9075 44.3494 48.9269C44.2607 48.9464 44.1687 48.9456 44.0803 48.9247L38.0905 47.3478C37.9703 47.3161 37.8635 47.2466 37.7859 47.1497C37.7084 47.0528 37.6642 46.9336 37.6599 46.8098L37.4721 41.4865L31.7942 40.076L28.6959 44.8066C28.631 44.906 28.5368 44.9829 28.4263 45.0268C28.3158 45.0707 28.1943 45.0795 28.0784 45.052L22.3456 43.6958L22.3432 43.7056ZM35.8274 22.4731L23.3863 42.7684L27.9471 43.8488L31.049 39.1139C31.1141 39.0141 31.2087 38.9371 31.3198 38.8932C31.4308 38.8494 31.5528 38.841 31.669 38.8691L38.1717 40.4818C38.2937 40.5126 38.4025 40.5818 38.4819 40.6792C38.5613 40.7766 38.6069 40.8969 38.6121 41.0221L38.7981 46.3528L43.5965 47.6154L42.0872 24.0763L35.8274 22.4731ZM38.4345 36.1091L33.757 34.8966C33.6691 34.8739 33.5877 34.8309 33.5194 34.7711C33.4511 34.7113 33.398 34.6363 33.3642 34.5522C33.3304 34.4681 33.317 34.3773 33.3251 34.2872C33.3331 34.1971 33.3623 34.1101 33.4104 34.0335L37.2216 27.9844C37.285 27.8832 37.3785 27.8042 37.4892 27.7584C37.5998 27.7126 37.722 27.7022 37.839 27.7287C37.954 27.7561 38.0579 27.8181 38.1364 27.9064C38.2149 27.9946 38.2643 28.1048 38.2777 28.2219L39.1496 35.4821C39.1612 35.5751 39.1498 35.6694 39.1163 35.7568C39.0829 35.8443 39.0284 35.9222 38.9577 35.9838C38.8863 36.0461 38.8005 36.09 38.708 36.1115C38.6155 36.133 38.519 36.1316 38.4271 36.1073L38.4345 36.1091ZM34.8034 33.9784L37.8958 34.7787L37.3209 29.9773L34.8034 33.9784Z" fill="white"/>
<path d="M51.4377 38.7097C51.3095 38.6542 51.2062 38.5452 51.1463 38.4022C51.0863 38.2592 51.0735 38.0915 51.1103 37.9292C51.1471 37.7668 51.2309 37.6203 51.3469 37.516C51.4629 37.4116 51.6034 37.3562 51.7434 37.3596C55.5099 38.0254 59.2801 38.9158 62.9426 40.0007C63.0161 40.0221 63.084 40.0608 63.1425 40.1145C63.201 40.1682 63.2488 40.2359 63.2833 40.3136C63.3178 40.3913 63.3382 40.4776 63.3434 40.5675C63.3486 40.6573 63.3385 40.749 63.3137 40.8372C63.2626 41.0145 63.1559 41.167 63.0163 41.2622C62.8768 41.3574 62.7155 41.3876 62.5669 41.3464C58.9342 40.2688 55.1982 39.3898 51.4696 38.73L51.4377 38.7097Z" fill="white"/>
<path d="M55.2708 46.2088C55.0737 46.1604 54.8989 46.0563 54.7848 45.9192C54.6707 45.7821 54.6264 45.6232 54.6617 45.4773L57.5583 33.6798C57.5944 33.5345 57.7066 33.4141 57.8706 33.3449C58.0345 33.2756 58.2369 33.2631 58.4338 33.3101C58.6309 33.3585 58.8056 33.4626 58.9197 33.5997C59.0338 33.7368 59.0781 33.8957 59.0428 34.0416L56.1463 45.8391C56.111 45.9848 55.9989 46.1056 55.8348 46.175C55.6706 46.2443 55.4677 46.2565 55.2708 46.2088Z" fill="white"/>
<path d="M17.6682 13.0595C17.6184 13.0475 17.5754 13.0164 17.5482 12.9728C17.521 12.9293 17.5118 12.8767 17.5226 12.8263L19.3012 4.91383C19.3068 4.88887 19.3174 4.86526 19.3321 4.84436C19.3469 4.82346 19.3656 4.80568 19.3872 4.79203C19.4087 4.77838 19.4328 4.76913 19.4579 4.76481C19.483 4.76048 19.5087 4.76117 19.5335 4.76684C19.5594 4.77032 19.5842 4.77949 19.6062 4.79369C19.6282 4.80789 19.6467 4.82679 19.6606 4.84903C19.6745 4.87127 19.6834 4.89632 19.6866 4.92241C19.6897 4.9485 19.6872 4.97499 19.679 5.00001L17.9036 12.9106C17.8915 12.9609 17.8604 13.0046 17.817 13.0325C17.7736 13.0604 17.7211 13.0703 17.6707 13.0601L17.6682 13.0595Z" fill="white"/>
<path d="M21.2064 9.54323C21.1569 9.53201 21.1141 9.5005 21.0873 9.45553C21.0605 9.41055 21.0519 9.35573 21.0633 9.30294L21.8374 5.54615C21.8484 5.49203 21.8792 5.44413 21.923 5.41299C21.9668 5.38185 22.02 5.37003 22.0709 5.38011C22.1219 5.3902 22.1663 5.42137 22.1946 5.46677C22.2228 5.51218 22.2325 5.56809 22.2215 5.62222L21.4474 9.379C21.4357 9.43324 21.4044 9.48102 21.3602 9.51199C21.316 9.54296 21.2625 9.55462 21.2114 9.54445L21.2064 9.54323Z" fill="white"/>
</svg>
