<svg width="122" height="113" viewBox="0 0 122 113" fill="none" xmlns="http://www.w3.org/2000/svg">
<path d="M40.0885 112.294C40.0142 112.329 39.9337 112.348 39.8515 112.351C39.7694 112.353 39.6874 112.339 39.6103 112.309C39.5332 112.279 39.4626 112.234 39.4028 112.177C39.3429 112.119 39.2949 112.05 39.2617 111.973C28.0847 86.2601 18.2047 65.9768 8.16923 48.1464C8.08883 48.0036 8.06658 47.8353 8.10726 47.6776C10.6439 37.9029 18.1896 33.2634 25.2353 30.0147C35.4714 25.2951 49.0584 27.2708 49.6314 27.3562C49.7328 27.3745 49.8286 27.4178 49.91 27.4823C49.9914 27.5467 50.0561 27.6304 50.0982 27.7257L77.42 88.0167C77.4558 88.0939 77.4755 88.1775 77.478 88.2622C77.4805 88.347 77.4657 88.4312 77.4345 88.5096C77.4033 88.5879 77.3564 88.6586 77.2966 88.7174C77.2369 88.7762 77.1657 88.8218 77.0874 88.8512C76.8116 88.9603 49.3328 99.6952 40.3276 112.106C40.2654 112.188 40.1831 112.253 40.0885 112.294ZM9.36532 47.7637C19.2546 65.3541 28.9901 85.3242 39.9664 110.512C49.0294 99.0756 71.9052 89.5708 76.028 87.9231L49.1329 28.5445C46.9769 28.2727 34.7961 26.9808 25.7579 31.1482C19.03 34.2503 11.8359 38.6494 9.36532 47.7637Z" fill="white"/>
<path d="M119.739 77.4656C119.645 77.5087 119.541 77.5264 119.437 77.5172C104.132 76.2769 77.4871 88.9739 77.2253 89.1128C77.1519 89.1476 77.0722 89.1672 76.9908 89.1705C76.9094 89.1737 76.8279 89.1606 76.7511 89.1317C76.6743 89.1025 76.6038 89.058 76.5439 89.0009C76.484 88.9438 76.4358 88.8752 76.4023 88.7993L48.6061 28.4436C48.5618 28.3498 48.5407 28.2468 48.5448 28.1436C48.5489 28.0404 48.578 27.9402 48.6296 27.8519C48.9383 27.3585 56.2396 15.7193 66.4691 11.0027C73.5103 7.75611 81.9326 5.0377 91.0224 9.48546C91.0953 9.52059 91.1608 9.5699 91.2152 9.63051C91.2696 9.69113 91.3118 9.76184 91.3393 9.83862C99.1026 30.9806 109.021 54.0791 120.026 76.6371C120.074 76.7362 120.096 76.8458 120.089 76.9552C120.082 77.0645 120.048 77.1696 119.988 77.2601C119.925 77.3503 119.839 77.4214 119.739 77.4656ZM77.7993 87.4471C82.9788 85.0589 104.411 75.6219 118.459 76.2068C107.662 54.0037 97.9299 31.3095 90.2764 10.4891C81.7325 6.42204 73.7188 9.0307 66.9952 12.1308C57.9555 16.2988 51.0446 26.4267 49.8604 28.2405L77.2423 87.7039L77.7993 87.4471Z" fill="white"/>
<path d="M33.636 110.213C33.5619 110.247 33.4814 110.266 33.3995 110.268C33.3175 110.27 33.2357 110.255 33.1588 110.224C33.082 110.194 33.0116 110.148 32.952 110.089C32.8923 110.031 32.8445 109.961 32.8114 109.884C23.0109 87.2074 12.296 65.6848 0.953947 45.914C0.910243 45.8375 0.882623 45.7529 0.87288 45.6656C0.863137 45.5783 0.871482 45.4902 0.897378 45.4071C4.0292 35.2753 12.4318 30.2291 20.2355 26.631C31.5794 21.4006 46.3381 22.923 46.9633 22.9921C47.0717 23.0035 47.1757 23.044 47.2645 23.1095C47.3534 23.175 47.4239 23.2631 47.4688 23.3646L77.3208 88.3324C77.3591 88.417 77.3787 88.5087 77.3782 88.6011C77.3777 88.6936 77.3571 88.7843 77.3179 88.8669C77.2787 88.9495 77.2218 89.022 77.1514 89.079C77.0809 89.1361 76.9986 89.1763 76.9104 89.1969C76.5857 89.274 44.1628 96.9347 33.847 110.043C33.7903 110.115 33.7182 110.173 33.636 110.213ZM2.16253 45.5384C13.3108 65.017 23.8562 86.1847 33.5387 108.465C43.8888 96.4494 70.995 89.3535 75.9086 88.1448L46.5228 24.1945C44.2056 23.9971 30.8736 23.1099 20.7787 27.7644C13.2867 31.2188 5.21812 36.0353 2.17227 45.5339L2.16253 45.5384Z" fill="white"/>
<path d="M121.479 69.701C121.394 69.7394 121.302 69.7572 121.208 69.7533C104.548 69.0831 77.6585 88.7702 77.3891 88.9671C77.317 89.0205 77.2338 89.0567 77.1457 89.0733C77.0575 89.0899 76.9664 89.0864 76.8789 89.0631C76.7915 89.0398 76.7098 88.9972 76.6397 88.9384C76.5696 88.8797 76.5129 88.8061 76.4735 88.7231L46.4486 23.835C46.4005 23.7349 46.3793 23.6241 46.3872 23.514C46.3951 23.4039 46.4318 23.2985 46.4935 23.2087C46.8446 22.6895 55.2753 10.4749 66.6168 5.24553C74.4229 1.64629 83.7143 -1.4659 93.4555 2.73041C93.5349 2.76553 93.6066 2.81683 93.6662 2.88106C93.7258 2.9453 93.7719 3.02109 93.8017 3.1037C101.482 24.563 110.892 46.6873 121.763 68.8704C121.8 68.9458 121.822 69.0276 121.827 69.111C121.833 69.1944 121.822 69.2777 121.795 69.3561C121.768 69.4345 121.726 69.5063 121.671 69.5674C121.616 69.6285 121.55 69.6776 121.475 69.7118L121.479 69.701ZM100.117 74.0457C106.885 70.9247 114.097 68.5079 120.23 68.4841C109.562 46.6586 100.316 24.8914 92.7498 3.76133C83.5411 -0.0869673 74.6461 2.91812 67.1517 6.37365C57.0495 11.0316 49.0743 21.7432 47.7197 23.6335L77.2736 87.5063C79.7737 85.7055 89.3886 78.9921 100.117 74.0457Z" fill="white"/>
<path d="M62.3416 8.20132C67.3198 14.7355 70.3812 21.9922 73.7176 29.5148C71.0307 27.592 68.1083 26.0684 65.04 24.9908C65.2551 28.2864 65.2705 31.6102 65.2848 34.9254C64.9711 35.1674 64.5623 34.8231 64.335 34.5108C59.7092 28.149 56.8797 21.8876 52.4592 15.4037C54.196 12.8888 55.4023 11.7845 58.0123 10.1975C59.0408 9.57405 60.957 8.12729 62.3416 8.20132Z" fill="white"/>
<path d="M65.45 35.493C65.274 35.5732 65.0769 35.5967 64.8832 35.5603C64.4675 35.4537 64.098 35.1919 63.8467 34.826C61.3275 31.3597 59.3053 27.8674 57.3609 24.4816C55.7206 21.6435 54.0224 18.711 52.0258 15.7827C51.952 15.6753 51.9115 15.5481 51.9099 15.4189C51.9083 15.2898 51.9457 15.1651 52.0169 15.0624C53.7767 12.5145 55.0038 11.3668 57.7166 9.70685C57.8878 9.60061 58.0863 9.47273 58.3013 9.33115C59.4508 8.58597 61.0232 7.56697 62.3487 7.63772C62.4367 7.64202 62.5234 7.66666 62.6027 7.70981C62.682 7.75295 62.7518 7.81353 62.8069 7.88711C67.4802 14.0151 70.4266 20.6908 73.5529 27.7564L74.2092 29.2358C74.2631 29.3605 74.2774 29.4982 74.2501 29.6283C74.2227 29.7585 74.1552 29.8741 74.0575 29.958C73.9598 30.0418 73.8373 30.0895 73.708 30.0938C73.5788 30.0981 73.4499 30.0589 73.3405 29.9819C70.9548 28.2751 68.3795 26.8872 65.6789 25.853C65.8402 28.8578 65.8565 31.9142 65.8724 34.8769C65.8721 34.9731 65.8512 35.067 65.8112 35.152C65.7713 35.237 65.7132 35.3109 65.6413 35.3684C65.5826 35.4175 65.5184 35.4593 65.45 35.493ZM53.2337 15.4682C55.1488 18.3128 56.7845 21.1409 58.3694 23.8772C60.2724 27.1669 62.2448 30.5761 64.6594 33.9209C64.6433 30.9643 64.6127 27.9387 64.4204 24.9907C64.4133 24.8903 64.4298 24.7908 64.4685 24.7007C64.5071 24.6105 64.5667 24.5325 64.6421 24.4733C64.7175 24.414 64.8066 24.3754 64.9015 24.3606C64.9964 24.3459 65.0943 24.3556 65.1869 24.3888C67.6574 25.2576 70.0365 26.4129 72.2778 27.8322C69.2966 21.0937 66.4438 14.7203 62.0673 8.90092C61.1232 9.00589 59.8367 9.83851 58.9612 10.4088C58.7415 10.5526 58.5206 10.6939 58.3458 10.7987C55.9178 12.2697 54.7585 13.3225 53.2337 15.4682Z" fill="white"/>
<path d="M13.5501 49.9412C13.5083 49.9605 13.4613 49.9653 13.4167 49.9548C13.372 49.9443 13.3325 49.9191 13.3043 49.8834C13.2762 49.8476 13.2611 49.8033 13.2616 49.7578C13.2621 49.7122 13.2781 49.668 13.307 49.6323C16.5436 45.6224 21.2002 42.3555 27.1459 39.9328C32.4201 37.7933 38.0523 36.5268 43.5025 35.315C43.5295 35.3064 43.558 35.3034 43.5861 35.3063C43.6142 35.3092 43.6413 35.3179 43.6657 35.3318C43.6902 35.3457 43.7114 35.3644 43.728 35.387C43.7447 35.4095 43.7563 35.4353 43.7623 35.4626C43.7684 35.49 43.7686 35.5183 43.763 35.5458C43.7574 35.5734 43.746 35.5995 43.7297 35.6226C43.7134 35.6456 43.6925 35.6651 43.6682 35.6798C43.644 35.6945 43.6171 35.704 43.589 35.7078C38.1568 36.9202 32.5383 38.1716 27.2989 40.3096C21.4165 42.709 16.8156 45.9298 13.6253 49.8861C13.6043 49.9094 13.5787 49.9282 13.5501 49.9412Z" fill="white"/>
<path d="M19.5926 61.6938C19.5537 61.7115 19.511 61.7181 19.4702 61.7127C19.4293 61.7073 19.3924 61.6902 19.3643 61.6637C19.3453 61.6469 19.3305 61.6264 19.3209 61.6034C19.3113 61.5804 19.3071 61.5554 19.3084 61.5299C19.3098 61.5044 19.3167 61.479 19.3288 61.4552C19.3409 61.4314 19.3579 61.4098 19.3788 61.3916C27.556 54.001 38.7181 50.6167 48.5722 47.6445C48.5981 47.6364 48.625 47.6331 48.6514 47.6346C48.6778 47.6362 48.703 47.6427 48.7258 47.6537C48.7486 47.6646 48.7684 47.6799 48.7841 47.6986C48.7998 47.7172 48.8111 47.7389 48.8173 47.7624C48.8281 47.8096 48.8185 47.8604 48.7906 47.9044C48.7627 47.9484 48.7185 47.9822 48.6671 47.9988C38.8633 50.9638 27.7577 54.322 19.6449 61.6458C19.6305 61.6644 19.6127 61.6806 19.5926 61.6938Z" fill="white"/>
<path d="M26.1075 74.4926C26.0714 74.5097 26.0309 74.5154 25.9912 74.509C25.9515 74.5025 25.9143 74.4842 25.8845 74.4564C25.8437 74.4194 25.8186 74.3678 25.8149 74.3129C25.8111 74.258 25.8289 74.2042 25.8643 74.1633C28.7178 70.9203 32.1275 68.2322 35.9333 66.2253C37.8951 65.2071 39.9272 64.3307 42.0146 63.6027C45.8905 62.1977 49.9122 61.2242 54.0098 60.6992C54.0365 60.6961 54.0635 60.6983 54.0895 60.7058C54.1155 60.7132 54.1398 60.7258 54.1612 60.7428C54.1826 60.7597 54.2005 60.7807 54.214 60.8046C54.2276 60.8285 54.2363 60.8547 54.2399 60.8818C54.2435 60.909 54.2419 60.9364 54.235 60.9627C54.2282 60.9889 54.2162 61.0135 54.2 61.0349C54.1837 61.0563 54.1634 61.0741 54.1402 61.0874C54.117 61.1007 54.0913 61.1092 54.0647 61.1123C49.9959 61.6323 46.0028 62.5996 42.1553 63.9974C40.0863 64.7184 38.0721 65.5865 36.1275 66.5952C32.3687 68.5789 29.0012 71.2353 26.1833 74.4395C26.1622 74.4627 26.1364 74.4808 26.1075 74.4926Z" fill="white"/>
<path d="M32.1145 87.5254C32.0802 87.5417 32.0415 87.5468 32.003 87.5404C31.9645 87.5339 31.9277 87.5161 31.8968 87.489C31.8542 87.451 31.8259 87.3979 31.8178 87.3409C31.8097 87.284 31.8225 87.2275 31.8533 87.1833C37.6273 79.3097 47.8462 74.5231 60.6358 73.7169C60.6629 73.7151 60.6905 73.719 60.7169 73.7285C60.7434 73.738 60.7682 73.7528 60.7899 73.7721C60.8117 73.7914 60.8301 73.8148 60.8439 73.8409C60.8577 73.8671 60.8667 73.8956 60.8704 73.9247C60.8741 73.9537 60.8725 73.9829 60.8655 74.0104C60.8586 74.038 60.8465 74.0634 60.8299 74.0853C60.8134 74.1071 60.7928 74.1249 60.7692 74.1377C60.7456 74.1505 60.7194 74.158 60.6923 74.1598C48.0138 74.9571 37.8923 79.6859 32.1898 87.4711C32.1698 87.4959 32.1439 87.5146 32.1145 87.5254Z" fill="white"/>
<path d="M65.2306 41.2832C65.1868 41.3018 65.1371 41.3032 65.0901 41.287C65.043 41.2708 65.0016 41.2381 64.9727 41.1945C64.9438 41.1509 64.9292 41.0991 64.9316 41.0478C64.934 40.9966 64.9531 40.9491 64.9857 40.9135C72.5006 33.1615 83.6934 27.8694 94.1933 27.1018C94.2216 27.0986 94.2507 27.1018 94.2787 27.1111C94.3066 27.1205 94.3328 27.1359 94.3557 27.1563C94.3785 27.1766 94.3975 27.2015 94.4113 27.2294C94.4251 27.2573 94.4336 27.2875 94.436 27.3182C94.4403 27.3485 94.4389 27.3789 94.4318 27.4077C94.4247 27.4365 94.4121 27.4631 94.3948 27.4858C94.3774 27.5085 94.3557 27.5268 94.3309 27.5398C94.3061 27.5528 94.2786 27.5602 94.2503 27.5614C83.8378 28.3248 72.7408 33.5727 65.2796 41.2474C65.2654 41.2622 65.2489 41.2743 65.2306 41.2832Z" fill="white"/>
<path d="M71.5134 53.5568C71.4708 53.5768 71.4224 53.5809 71.3765 53.5686C71.3306 53.5563 71.29 53.5284 71.2616 53.4894C71.2332 53.4505 71.2188 53.403 71.2208 53.355C71.2228 53.3071 71.2411 53.2617 71.2726 53.2265C74.1261 49.9834 77.5361 47.2951 81.3421 45.2882C83.3044 44.2697 85.337 43.3931 87.4249 42.6649C91.3018 41.2592 95.3244 40.2853 99.423 39.7601C99.4753 39.7562 99.5274 39.7729 99.5686 39.8068C99.6098 39.8407 99.6369 39.8891 99.6443 39.9421C99.6516 39.9951 99.6387 40.0485 99.6082 40.0913C99.5776 40.1341 99.5318 40.1631 99.4803 40.1721C95.4109 40.6944 91.4171 41.6621 87.5681 43.0585C85.4977 43.7802 83.4822 44.6488 81.5363 45.6582C77.7765 47.6423 74.4081 50.2991 71.5892 53.5037C71.5682 53.5269 71.5423 53.545 71.5134 53.5568Z" fill="white"/>
<path d="M77.0117 66.8248C76.97 66.8441 76.9233 66.8495 76.8793 66.8402C76.8353 66.8308 76.7966 66.8073 76.7694 66.7734C76.7421 66.7394 76.7279 66.6971 76.7292 66.6533C76.7304 66.6095 76.747 66.5667 76.7762 66.5319C82.8323 59.2787 93.0542 54.5014 105.566 53.0901C105.62 53.0842 105.673 53.099 105.714 53.1312C105.754 53.1635 105.779 53.2105 105.783 53.262C105.787 53.3135 105.769 53.3653 105.734 53.4058C105.698 53.4464 105.648 53.4726 105.595 53.4785C93.1962 54.8736 83.0713 59.5922 77.086 66.7682C77.0655 66.7919 77.0402 66.8112 77.0117 66.8248Z" fill="white"/>
<path d="M88.6811 15.2998C88.6522 15.3123 88.6208 15.3182 88.5891 15.3171C83.6954 15.1965 78.8789 16.2983 74.5568 18.5271C74.5071 18.5497 74.4506 18.5525 74.3979 18.5352C74.3452 18.5178 74.3001 18.4815 74.2711 18.433C74.2456 18.3814 74.2404 18.3222 74.2566 18.2679C74.2728 18.2136 74.3092 18.1684 74.358 18.1419C78.7426 15.8837 83.6274 14.7665 88.5906 14.8866C88.6455 14.8884 88.6982 14.9122 88.7373 14.9528C88.7764 14.9934 88.7988 15.0477 88.7998 15.1039C88.8008 15.1453 88.7902 15.1858 88.7691 15.2205C88.7481 15.2552 88.7175 15.2828 88.6811 15.2998Z" fill="white"/>
<path d="M7.93991 50.6316C7.91211 50.6447 7.87696 50.6392 7.84137 50.6164C7.80578 50.5935 7.77233 50.5549 7.74764 50.5081L4.75451 44.7695C4.74159 44.7448 4.73147 44.7185 4.72476 44.6922C4.71805 44.666 4.71486 44.6402 4.71538 44.6164C4.7159 44.5926 4.72011 44.5713 4.72778 44.5536C4.73545 44.5358 4.74643 44.5221 4.76008 44.5132C4.77374 44.5043 4.78981 44.5003 4.80737 44.5016C4.82493 44.5028 4.84366 44.5092 4.86245 44.5203C4.88125 44.5315 4.89975 44.5473 4.91692 44.5667C4.93408 44.5862 4.94957 44.6089 4.9625 44.6336L7.95563 50.3722C7.98118 50.4223 7.99478 50.4771 7.99349 50.5248C7.9922 50.5725 7.97613 50.6094 7.94873 50.6275L7.93991 50.6316Z" fill="white"/>
<path d="M7.74575 45.0321C7.69655 45.0556 7.63931 45.0572 7.58638 45.0364C7.53346 45.0156 7.48912 44.9741 7.46299 44.9209L5.59581 41.2279C5.58224 41.2011 5.57363 41.1721 5.5705 41.1426C5.56738 41.113 5.56979 41.0834 5.57759 41.0555C5.58539 41.0276 5.59841 41.002 5.61594 40.9801C5.63347 40.9582 5.65516 40.9404 5.67975 40.9278C5.72895 40.9042 5.78621 40.9027 5.83913 40.9235C5.89205 40.9443 5.93638 40.9858 5.96251 41.039L7.82969 44.7319C7.84326 44.7587 7.85188 44.7877 7.855 44.8173C7.85813 44.8469 7.85572 44.8765 7.84792 44.9043C7.84013 44.9322 7.82709 44.9578 7.80956 44.9798C7.79203 45.0017 7.77034 45.0195 7.74575 45.0321Z" fill="white"/>
<path d="M116.38 66.372C116.297 66.4101 116.21 66.4307 116.134 66.43C116.058 66.4294 115.999 66.4076 115.968 66.3685C114.714 64.7702 113.847 62.9684 113.385 61.0005C113.377 60.9746 113.38 60.9452 113.391 60.9141C113.402 60.883 113.422 60.8508 113.45 60.8193C113.478 60.7879 113.513 60.7579 113.553 60.7311C113.594 60.7043 113.638 60.6812 113.684 60.6632C113.73 60.6451 113.777 60.6326 113.822 60.6262C113.867 60.6199 113.909 60.6198 113.946 60.6261C113.982 60.6324 114.013 60.6448 114.035 60.6628C114.058 60.6807 114.072 60.7038 114.077 60.7306C114.532 62.667 115.386 64.4399 116.62 66.0128C116.637 66.0336 116.646 66.059 116.645 66.0874C116.644 66.1158 116.634 66.1467 116.615 66.1783C116.596 66.2098 116.569 66.2414 116.536 66.2711C116.502 66.3007 116.463 66.3279 116.419 66.3511L116.38 66.372Z" fill="white"/>
<path d="M113.65 66.9987L113.617 67.0139C113.565 67.0293 113.51 67.0267 113.461 67.0067C113.413 66.9867 113.375 66.9506 113.354 66.9047L112.063 64.1714C112.04 64.1203 112.039 64.0611 112.062 64.0069C112.084 63.9527 112.128 63.9079 112.183 63.8823C112.239 63.8568 112.301 63.8526 112.357 63.8706C112.413 63.8887 112.458 63.9277 112.481 63.9788C113.751 66.3278 113.77 66.5434 113.779 66.7945C113.78 66.8355 113.768 66.8765 113.745 66.9127C113.722 66.9489 113.689 66.9787 113.65 66.9987Z" fill="white"/>
<path d="M73.5548 28.7176C73.2118 28.6066 72.8923 28.4292 72.6144 28.1951C71.9557 27.7778 71.2773 27.3941 70.5818 27.0453C69.5965 26.5345 68.5734 26.1014 67.5806 25.6062C66.9373 25.3569 66.3323 24.8577 65.646 24.8032C64.7974 24.7873 64.4953 25.8284 64.9531 26.3924C64.9267 26.602 64.9598 26.8158 65.0484 27.0089L65.0583 27.107C65.0889 27.8136 65.195 29.3752 65.3064 30.7564C65.3428 31.6867 65.4799 33.2581 65.1488 34.1466L65.109 34.2012L65.0847 34.2124C64.976 34.1608 64.8579 34.1335 64.7387 34.1323C64.6194 34.1311 64.5017 34.156 64.3936 34.2053C64.2606 34.2686 64.1468 34.3663 64.0633 34.4887C63.9799 34.611 63.9297 34.7539 63.9178 34.9031C63.9058 35.0524 63.9325 35.2028 63.9952 35.3397C64.0579 35.4765 64.1544 35.595 64.2753 35.6834C64.5097 35.8428 64.7812 35.9356 65.0611 35.9521C65.3409 35.9685 65.6187 35.9079 65.865 35.7768C67.7252 34.7411 67.0958 30.9116 67.0799 29.0399C67.0336 28.1776 66.9894 27.8512 66.9598 27.4094C68.4909 28.1119 69.8708 28.7424 71.0576 29.4407C71.8002 29.8517 72.5953 30.1533 73.4187 30.3365C74.7585 30.6176 74.8518 28.765 73.5548 28.7176Z" fill="white"/>
<path d="M67.6275 90.4784C67.4397 90.4577 67.251 90.4943 67.0856 90.5834C67.0561 90.5941 67.0276 90.6072 67.0004 90.6227C66.8502 90.7131 66.8819 90.6985 66.9468 90.6474L66.8504 90.707C66.1927 91.0283 66.1033 91.1992 65.6377 91.3355C63.8991 91.9049 60.82 93.1135 58.037 94.1132C55.2172 95.1096 52.455 96.2605 49.7622 97.5606C47.9466 98.2831 44.8284 100.246 44.1057 100.727C42.1047 102.02 40.1013 103.315 38.1642 104.709C36.7718 105.351 37.5871 107.439 39.0489 106.864C42.8202 104.411 45.8078 102.056 49.2766 100.239C53.499 98.2263 57.8497 96.4916 62.134 94.6128C63.4079 94.0195 64.7165 93.5038 66.0529 93.0682C66.7279 92.7268 67.107 92.6847 67.9789 92.3672C68.1634 92.2683 68.3112 92.1122 68.4011 91.9212C68.4911 91.7302 68.5185 91.5142 68.4794 91.3043C68.4404 91.0943 68.3368 90.9013 68.1838 90.7529C68.0307 90.6045 67.8359 90.5084 67.6275 90.4784Z" fill="white"/>
<path d="M114.651 69.1195C113.68 69.4257 111.366 69.9073 108.522 70.9081C103.64 72.5534 98.9085 74.6099 94.376 77.0564C91.7213 78.5006 88.7731 80.4541 87.6122 81.1884C86.5224 81.9298 85.3533 82.5458 84.1261 83.025C83.6027 83.1563 83.1006 83.3594 82.6335 83.6288C82.4317 83.7259 82.2722 83.8938 82.1839 84.1018C82.0956 84.3099 82.0844 84.5444 82.1522 84.7628C82.22 84.9812 82.3624 85.1689 82.5536 85.292C82.7447 85.415 82.9719 85.4652 83.1939 85.4333C84.2056 85.1629 83.8319 85.4407 84.7302 85.1291C85.4366 84.9164 86.1123 84.614 86.7414 84.2289C86.8387 84.184 86.9733 84.0918 87.0857 84.0219L87.0175 84.0533L87.1879 83.9748C89.7185 82.5878 91.6467 81.3157 93.2574 80.2895C96.3805 78.2223 102.232 75.7744 104.57 75.0436C107.131 74.3181 109.419 73.6097 111.986 72.6978C112.937 72.4493 113.576 72.2481 113.992 72.1196L114.431 71.9897C114.609 71.9529 114.949 71.9105 114.999 71.8905C115.226 71.8835 115.445 71.8068 115.627 71.6705C116.898 70.9272 116.094 68.8615 114.651 69.1195Z" fill="white"/>
</svg>
