<svg width="96" height="109" viewBox="0 0 96 109" fill="none" xmlns="http://www.w3.org/2000/svg">
<path d="M69.9384 24.8292L11.903 38.1917L12.0399 38.7862L70.0753 25.4237L69.9384 24.8292Z" fill="white"/>
<path d="M81.6628 70.3336L24.2197 83.5597L24.3565 84.1542L81.7997 70.9281L81.6628 70.3336Z" fill="white"/>
<path d="M30.1504 107.861C27.0806 108.568 24.1876 109.087 21.5451 106.781C19.4096 104.906 18.6761 101.876 18.1398 99.663L1.65972 31.6003C0.359822 26.2259 -0.386791 20.7361 2.94519 17.0091C5.07511 14.6354 8.31075 13.7705 10.919 13.074C17.4163 11.3411 51.2314 3.30634 63.4865 0.787524C64.8612 0.50698 69.1801 0.00735691 70.9441 0.887695L71.2391 1.03268C72.686 1.73712 75.111 2.91808 76.0887 7.16418C76.8047 10.274 79.5809 21.621 83.0964 35.9855C86.7673 50.9859 91.3369 69.6568 94.7038 83.6597C95.0696 85.1708 95.5205 87.0522 94.9796 88.8231C93.9857 92.0747 90.399 93.5333 87.5636 94.1861C79.032 96.1505 69.9619 98.3468 60.3623 100.671C50.6892 103.012 40.6864 105.432 31.2087 107.615L30.1525 107.858L30.1504 107.861ZM46.2734 5.9773C32.1331 9.23307 15.6001 13.2047 11.2632 14.3622C8.82305 15.014 5.78601 15.8242 3.93038 17.9038C1.01044 21.1731 1.73196 26.2698 2.94707 31.2889L19.4292 99.3601C20.0672 102.002 20.7355 104.31 22.4129 105.783C24.685 107.773 27.1972 107.189 30.3667 106.45L30.9089 106.325C40.3781 104.145 50.369 101.725 60.0477 99.3821C69.6501 97.0572 78.7236 94.8631 87.2637 92.8967C89.7602 92.3219 92.9065 91.0817 93.7131 88.437C94.1497 87.014 93.7604 85.4003 93.4184 83.9796C90.0487 69.9774 85.4824 51.3207 81.8117 36.3083C78.2948 21.9381 75.518 10.5883 74.8 7.4699C73.9659 3.84747 72.0572 2.91948 70.6669 2.241L70.3585 2.0901C69.114 1.47699 65.3979 1.76586 63.7611 2.10973C59.6999 2.92786 53.28 4.36405 46.2734 5.9773ZM34.7958 98.7698C32.3811 99.3258 30.0943 99.7264 27.9653 97.7126C26.3916 96.2247 25.7827 94.1098 25.2006 91.6978L11.4633 34.7469C10.3749 30.2264 9.71836 25.6185 12.2795 22.5218C13.9241 20.5328 16.4576 19.8475 18.4945 19.2916C23.5148 17.9377 49.6315 11.7145 59.0978 9.79281C59.8988 9.62937 63.4648 9.15317 64.9944 9.99749L65.2251 10.1213C66.3718 10.7359 68.2816 11.7716 69.1077 15.3599C69.7064 17.9599 72.017 27.4529 74.9558 39.4672C78.0156 52.0203 81.8217 67.6464 84.6303 79.3667C84.9234 80.6397 85.3146 82.223 84.9163 83.7091C84.3284 85.8957 82.3228 87.44 79.1061 88.1806C72.5175 89.6977 65.5164 91.3996 58.1065 93.1987C50.638 95.0142 42.9159 96.8912 35.5959 98.5766L34.7768 98.7652L34.7958 98.7698ZM45.8753 14.1027C34.9601 16.6159 22.1999 19.6919 18.8518 20.5977C16.9951 21.0972 14.6827 21.7226 13.3027 23.3748C11.1168 26.0222 11.7465 30.2555 12.7562 34.4342L26.4936 91.3851C27.0237 93.5841 27.5676 95.5071 28.8748 96.7415C30.6043 98.3764 32.5092 97.9318 34.9028 97.3747L35.3208 97.2785C42.6324 95.595 50.3516 93.7187 57.8145 91.9045C65.2294 90.1012 72.2333 88.3986 78.8304 86.8797C80.7112 86.4466 83.077 85.4851 83.649 83.3712C83.9765 82.2102 83.6416 80.8719 83.3575 79.6898C80.5467 67.9729 76.7414 52.3497 73.6844 39.7959C70.7556 27.7733 68.433 18.2801 67.8324 15.6715C67.1426 12.6756 65.6766 11.8886 64.608 11.316L64.3634 11.1834C63.5014 10.7071 60.7817 10.8295 59.364 11.117C56.2337 11.7417 51.2778 12.8588 45.8753 14.1027Z" fill="white"/>
<path d="M57.1904 19.6283C55.7202 19.9056 54.7008 21.3403 54.4482 22.7944C54.1956 24.2485 54.5422 25.7269 54.89 27.1561L55.406 29.2751C55.823 30.9913 56.3004 32.807 57.6046 34.0067C59.0951 35.3779 61.7917 35.4733 63.067 33.8878C64.0232 32.6941 63.9689 31.0199 63.7948 29.5171C63.6115 27.8164 63.342 26.1304 62.9864 24.4592C62.7259 23.2059 62.402 21.9213 61.624 20.9034C60.846 19.8856 59.4982 19.1887 57.1904 19.6283Z" fill="white"/>
<path d="M61.4295 35.5522C61.2109 35.6023 60.9888 35.6352 60.7651 35.6505C60.1139 35.7022 59.4594 35.6212 58.8421 35.4125C58.2248 35.2038 57.6579 34.8717 57.1762 34.4368C55.7044 33.0666 55.2103 31.0402 54.8135 29.4103L54.302 27.309C53.96 25.9033 53.5754 24.313 53.8564 22.7092C54.1374 21.1054 55.2355 19.3742 57.0907 19.026C59.8889 18.4971 61.3694 19.5587 62.1201 20.5546C62.994 21.686 63.3219 23.1102 63.5856 24.3488C63.9343 26.0231 64.2077 27.73 64.4023 29.4277C64.5969 31.1254 64.6253 32.9008 63.5526 34.2497C63.017 34.9133 62.2668 35.3735 61.4295 35.5522ZM57.2529 20.3699C56.0878 20.6381 55.3726 21.8744 55.193 22.9328C54.965 24.2603 55.3011 25.64 55.6292 26.9852L56.1383 29.0901C56.4946 30.5441 56.9332 32.3556 58.1109 33.4475C58.4557 33.7533 58.8594 33.9868 59.2981 34.1341C59.7367 34.2814 60.2012 34.3394 60.6638 34.3047C61.0109 34.2909 61.3514 34.205 61.6635 34.0526C61.9755 33.9002 62.2521 33.6848 62.4753 33.4201C63.2406 32.4546 63.1987 31.0071 63.0373 29.5871C62.8491 27.9305 62.5785 26.2624 62.2427 24.6307C62.0005 23.4721 61.703 22.2869 61.0195 21.3696C60.2538 20.362 59.0485 20.0293 57.3322 20.3547L57.2536 20.3728L57.2529 20.3699Z" fill="white"/>
<path d="M43.3047 47.2403C41.9409 47.4955 41.0022 48.8654 40.7746 50.2599C40.547 51.6545 40.896 53.0693 41.2139 54.4501L41.7098 56.4904C42.1095 58.1379 42.5639 59.8846 43.7863 61.0454C45.1833 62.372 47.6945 62.4855 48.8697 60.9698C49.7513 59.8309 49.689 58.2235 49.5162 56.7798C49.3336 55.1461 49.0718 53.5258 48.7308 51.9188C48.4796 50.7139 48.169 49.4786 47.4376 48.4962C46.7063 47.5138 45.4531 46.8369 43.3047 47.2403Z" fill="white"/>
<path d="M47.3692 62.5784C47.1635 62.625 46.9545 62.6564 46.7441 62.6725C46.1332 62.7178 45.5186 62.6352 44.9383 62.43C44.3581 62.2247 43.8244 61.9011 43.3702 61.4792C41.9778 60.1516 41.502 58.1973 41.1227 56.6248L40.6302 54.5981C40.3014 53.2452 39.9277 51.7095 40.1853 50.1688C40.4429 48.6282 41.4633 46.9793 43.2016 46.6376C45.8222 46.1455 47.2182 47.1766 47.9288 48.14C48.7564 49.2376 49.0726 50.6109 49.3296 51.8018C49.6661 53.4135 49.9335 55.0615 50.1235 56.6982C50.3135 58.3348 50.3561 60.0434 49.3544 61.3367C48.8564 61.9735 48.1546 62.4125 47.3692 62.5784ZM43.3563 47.934C42.2643 48.1854 41.6029 49.3711 41.4379 50.3898C41.2344 51.6662 41.5553 52.9975 41.8713 54.2948L42.3644 56.3242C42.7046 57.7272 43.1298 59.4736 44.2423 60.5348C44.5679 60.8307 44.9483 61.0574 45.3608 61.2014C45.7732 61.3453 46.2094 61.4036 46.6431 61.3726C46.9683 61.3614 47.2871 61.2807 47.5787 61.1359C47.8702 60.9911 48.1281 60.7854 48.3355 60.5321C49.0509 59.6062 49.003 58.2121 48.8432 56.8437C48.6561 55.2444 48.3928 53.6393 48.0652 52.0666C47.8337 50.9489 47.5455 49.8091 46.8978 48.919C46.1759 47.9435 45.0398 47.6167 43.4307 47.9198L43.357 47.9368L43.3563 47.934Z" fill="white"/>
<path d="M41.2182 73.3875C39.8532 73.6459 38.9151 75.0152 38.6898 76.4057C38.4645 77.7962 38.798 79.2198 39.1324 80.5961L39.6274 82.6327C40.0296 84.2788 40.4839 86.0248 41.7056 87.185C43.1024 88.5139 45.6146 88.6386 46.7858 87.1097C47.6675 85.9741 47.605 84.3675 47.4323 82.9245C47.2502 81.2934 46.9874 79.6731 46.6439 78.0635C46.3927 76.8592 46.0829 75.6272 45.3514 74.6424C44.6198 73.6576 43.3624 72.985 41.2182 73.3875Z" fill="white"/>
<path d="M45.2841 88.7259C45.0794 88.7736 44.8711 88.8043 44.6611 88.8177C44.0492 88.8592 43.4328 88.7689 42.8494 88.5525C42.2661 88.336 41.7281 87.9979 41.2684 87.5588C39.8618 86.1705 39.3719 84.1431 38.9771 82.5157L38.4673 80.4139C38.1263 79.0079 37.7422 77.4145 37.9852 75.8224C38.2283 74.2303 39.237 72.5166 40.9768 72.1919C43.6019 71.7029 45.0091 72.7814 45.7296 73.7873C46.5536 74.9303 46.8952 76.3514 47.1602 77.5897C47.5111 79.2636 47.7922 80.9718 47.9971 82.6611C48.202 84.3504 48.2468 86.1312 47.2487 87.4539C46.7576 88.1054 46.0639 88.5545 45.2841 88.7259ZM41.1485 73.5367C40.0561 73.7883 39.4001 75.0109 39.2429 76.0641C39.0486 77.3809 39.3842 78.7638 39.7113 80.1093L40.2211 82.2111C40.5734 83.6661 41.0107 85.4779 42.1341 86.5854C42.4628 86.8946 42.8459 87.1328 43.2605 87.2856C43.6751 87.4384 44.1128 87.5027 44.5475 87.4748C44.8735 87.4643 45.1922 87.3827 45.4835 87.2351C45.7748 87.0876 46.0322 86.8773 46.2394 86.6177C46.9462 85.6656 46.8864 84.2192 46.7153 82.8014C46.5162 81.1502 46.2395 79.4865 45.9 77.8495C45.6563 76.6913 45.361 75.5085 44.7054 74.5848C43.9714 73.5698 42.833 73.2217 41.2222 73.5198L41.1485 73.5367Z" fill="white"/>
<path d="M74.1648 81.4499C73.9602 81.4978 73.7519 81.5285 73.5418 81.5417C72.9299 81.5844 72.3131 81.4947 71.7296 81.2782C71.1461 81.0616 70.6082 80.7229 70.1491 80.2827C68.7431 78.8973 68.2532 76.8697 67.8577 75.2395L67.348 73.1376C67.007 71.7316 66.6228 70.1381 66.8659 68.546C67.109 66.9539 68.1203 65.2516 69.8575 64.9154C72.4832 64.4292 73.8898 65.5049 74.6103 66.5109C75.4349 67.6568 75.7758 69.075 76.0408 70.3134C76.3911 71.9844 76.6715 73.6898 76.8778 75.3849C77.084 77.08 77.1358 78.8532 76.1451 80.1833C75.6489 80.8357 74.9495 81.283 74.1648 81.4499ZM70.0291 66.2603C68.9367 66.5118 68.2808 67.7345 68.1263 68.7871C67.9293 70.1045 68.2649 71.4875 68.592 72.8329L69.0991 74.9354C69.4541 76.3898 69.8914 78.2018 71.0148 79.3093C71.3434 79.6188 71.7264 79.8571 72.141 80.01C72.5557 80.1628 72.9935 80.2269 73.4282 80.1987C73.7542 80.188 74.0728 80.1063 74.3641 79.9588C74.6554 79.8113 74.9128 79.6011 75.1202 79.3416C75.8269 78.3895 75.7678 76.9459 75.596 75.5252C75.3963 73.8711 75.1189 72.2045 74.7813 70.576C74.5377 69.4178 74.2416 68.2321 73.5861 67.3083C72.852 66.2934 71.7136 65.9453 70.1028 66.2433L70.0291 66.2603Z" fill="white"/>
<path d="M33.0041 42.097C32.7849 42.1482 32.562 42.1823 32.3375 42.1989C31.6867 42.2493 31.033 42.1676 30.4164 41.9587C29.7998 41.7499 29.2333 41.4184 28.7516 40.9845C27.2762 39.612 26.7819 37.5855 26.3888 35.9578L25.8773 33.8563C25.5353 32.4506 25.1471 30.8581 25.4317 29.2565C25.7162 27.6548 26.812 25.9271 28.6651 25.5703C31.4603 25.042 32.9408 26.1037 33.6951 27.1019C34.5697 28.2363 34.897 29.6575 35.1607 30.8962C35.5088 32.5677 35.7821 34.2746 35.9738 35.9731C36.1655 37.6715 36.2005 39.4485 35.1249 40.7981C34.5894 41.46 33.8401 41.9189 33.0041 42.097ZM28.8251 26.9178C27.66 27.186 26.9449 28.4223 26.7653 29.4807C26.5395 30.8047 26.8734 32.188 27.2015 33.5332L27.713 35.6347C28.0663 37.0894 28.5078 38.9004 29.6861 39.9952C30.0307 40.3013 30.4345 40.535 30.8732 40.6823C31.3119 40.8296 31.7764 40.8875 32.2391 40.8524C32.5854 40.8374 32.925 40.751 33.2364 40.5988C33.5478 40.4466 33.8241 40.232 34.0476 39.9685C34.8158 39.0023 34.7703 37.5525 34.6118 36.1318C34.4236 34.4751 34.153 32.807 33.8142 31.1758C33.5749 30.0166 33.2752 28.8348 32.5917 27.9175C31.8289 26.9092 30.6207 26.5772 28.9038 26.8997L28.8251 26.9178Z" fill="white"/>
<path d="M38.9352 65.1464C38.7159 65.1976 38.493 65.2317 38.2685 65.2483C37.6177 65.2984 36.9641 65.2165 36.3475 65.0077C35.7309 64.7989 35.1643 64.4675 34.6823 64.0339C33.2075 62.6643 32.7155 60.6342 32.3194 59.0071L31.808 56.9056C31.4659 55.4998 31.0777 53.9073 31.3623 52.3056C31.6469 50.7039 32.7441 48.9819 34.5961 48.6193C37.3944 48.0903 38.8721 49.1527 39.6265 50.1508C40.4866 51.2886 40.8284 52.7066 41.0922 53.9452C41.4402 55.6168 41.7136 57.3238 41.9053 59.0222C42.097 60.7207 42.1319 62.4978 41.0592 63.8468C40.5221 64.5085 39.7719 64.9676 38.9352 65.1464ZM34.759 49.9661C33.5938 50.2344 32.8786 51.4708 32.6961 52.5298C32.4703 53.8538 32.807 55.2366 33.1322 56.5825L33.6437 58.684C33.9971 60.1388 34.4386 61.9497 35.617 63.0446C35.9618 63.3504 36.3656 63.5839 36.8042 63.7312C37.2429 63.8785 37.7075 63.9365 38.1701 63.9018C38.5165 63.8867 38.8562 63.8004 39.1676 63.6482C39.479 63.496 39.7552 63.2813 39.9787 63.0178C40.747 62.0516 40.7045 60.6011 40.5432 59.181C40.355 57.5243 40.0843 55.8561 39.7485 54.2242C39.5062 53.0657 39.2094 51.8832 38.5259 50.9659C37.7601 49.9582 36.5547 49.6255 34.8347 49.9487L34.759 49.9661Z" fill="white"/>
<path d="M23.8092 44.2141C23.6044 44.2606 23.3962 44.2913 23.1864 44.3059C22.5747 44.3473 21.9584 44.257 21.3752 44.0406C20.792 43.8241 20.2542 43.486 19.7946 43.0469C18.3882 41.6585 17.8984 39.6311 17.5036 38.0038L16.9939 35.9021C16.6529 34.4961 16.2688 32.9028 16.5117 31.3108C16.7546 29.7188 17.7623 28.0023 19.5049 27.68C22.1292 27.1911 23.5361 28.2697 24.2564 29.2756C25.0802 30.4186 25.4218 31.8396 25.6868 33.0779C26.0363 34.746 26.3175 36.4541 26.521 38.1497C26.7246 39.8454 26.7818 41.6172 25.7915 42.9471C25.2949 43.6002 24.5947 44.0477 23.8092 44.2141ZM19.6739 29.0254C18.5818 29.2768 17.9262 30.4994 17.769 31.5525C17.5749 32.8692 17.9105 34.2521 18.2348 35.5982L18.7446 37.6999C19.0968 39.1548 19.5368 40.966 20.66 42.0735C20.9885 42.3831 21.3714 42.6214 21.7859 42.7742C22.2005 42.927 22.6381 42.9912 23.0727 42.963C23.3988 42.9526 23.7176 42.8708 24.0088 42.7227C24.2999 42.5746 24.557 42.3636 24.7635 42.1031C25.4706 41.1541 25.4107 39.7077 25.2395 38.29C25.0398 36.636 24.7625 34.9694 24.4243 33.3382C24.1806 32.18 23.8853 30.9973 23.2299 30.0736C22.496 29.0587 21.3579 28.7105 19.7476 29.0084L19.6739 29.0254Z" fill="white"/>
<path d="M29.741 67.2632C29.5363 67.3109 29.3281 67.3422 29.1184 67.3568C28.5073 67.4028 27.8923 67.3209 27.3116 67.1163C26.7308 66.9116 26.1966 66.5884 25.7418 66.1667C24.3519 64.8384 23.876 62.8838 23.4939 61.3117L23.0013 59.2849C22.6719 57.929 22.3015 56.3952 22.5564 54.855C22.8114 53.3148 23.8322 51.6539 25.5706 51.3239C28.1946 50.831 29.5908 51.8622 30.3015 52.8257C31.1293 53.9234 31.4449 55.2942 31.6998 56.4886C32.0364 58.1005 32.3032 59.746 32.4965 61.385C32.6899 63.024 32.7265 64.7313 31.7273 66.0242C31.2282 66.6597 30.5261 67.0977 29.741 67.2632ZM25.7309 52.6191C24.6386 52.8706 23.9744 54.0571 23.812 55.0753C23.6058 56.3525 23.9294 57.6834 24.2454 58.9808L24.738 61.0077C25.0789 62.4136 25.5007 64.1581 26.6135 65.2194C26.9395 65.516 27.3205 65.7432 27.7336 65.8875C28.1467 66.0318 28.5836 66.0903 29.0181 66.0595C29.3434 66.0482 29.6622 65.9676 29.9538 65.8228C30.2455 65.6779 30.5034 65.4722 30.7108 65.2188C31.4237 64.2934 31.3758 62.8991 31.2153 61.5277C31.0288 59.9311 30.7656 58.3257 30.4407 56.7522C30.2065 55.635 29.9208 54.4944 29.2731 53.6042C28.5482 52.6292 27.4147 52.3017 25.8052 52.605L25.7315 52.6219L25.7309 52.6191Z" fill="white"/>
<path d="M35.805 90.908C35.6001 90.9542 35.392 90.9849 35.1822 90.9998C34.5705 91.0417 33.9541 90.9512 33.3711 90.7341C32.7881 90.5169 32.2508 90.1776 31.7924 89.7372C30.3867 88.3517 29.8941 86.3248 29.5014 84.6939L28.9915 82.5921C28.6512 81.189 28.265 79.5991 28.51 78.0035C28.755 76.4079 29.7633 74.7064 31.5006 74.3732C34.1276 73.8837 35.5318 74.9629 36.2514 75.966C37.0895 77.1088 37.4168 78.5301 37.6852 79.7707C38.0361 81.4446 38.3166 83.1499 38.5195 84.8428C38.7224 86.5356 38.777 88.3081 37.7867 89.6381C37.2921 90.2938 36.5914 90.7428 35.805 90.908ZM31.6743 75.7145C30.5822 75.9659 29.9293 77.1879 29.7722 78.2411C29.5759 79.5613 29.9296 81.01 30.238 82.2869L30.7485 84.3916C31.1007 85.8466 31.5407 87.6579 32.6639 88.7654C32.9925 89.0744 33.3754 89.3121 33.7898 89.4645C34.2042 89.6168 34.6417 89.6806 35.076 89.652C35.4017 89.6431 35.7204 89.5622 36.0113 89.4147C36.3023 89.2671 36.5589 89.0563 36.7647 88.7957C37.4739 87.8431 37.4119 86.4002 37.2435 84.9817C37.0444 83.3305 36.7677 81.6669 36.4254 80.0304C36.1845 78.8716 35.8858 77.6865 35.231 76.7657C34.4991 75.7472 33.361 75.399 31.7487 75.7004L31.6743 75.7145Z" fill="white"/>
<path d="M4.39455 26.1479L4.37882 26.1515C4.34708 26.1573 4.31467 26.1574 4.28351 26.1517C4.25235 26.146 4.22305 26.1347 4.19732 26.1185C4.17159 26.1022 4.14992 26.0813 4.13362 26.057C4.11732 26.0326 4.10673 26.0054 4.1024 25.9768C3.73312 23.691 4.11317 21.325 5.19607 19.1683C5.22365 19.1137 5.27348 19.0703 5.33469 19.0475C5.39589 19.0248 5.46343 19.0246 5.5224 19.047C5.58138 19.0693 5.62699 19.1125 5.64918 19.1669C5.67138 19.2213 5.66836 19.2825 5.64078 19.3371C4.59586 21.4161 4.22964 23.6974 4.58718 25.9009C4.59236 25.9548 4.57578 26.0095 4.54036 26.0549C4.50495 26.1003 4.45311 26.1334 4.39455 26.1479Z" fill="white"/>
<path d="M7.51541 23.5513C7.48667 23.5579 7.45682 23.5587 7.42767 23.5535C7.39852 23.5484 7.37059 23.5375 7.34548 23.5213C7.32036 23.5052 7.29861 23.4843 7.28136 23.4596C7.2641 23.435 7.25173 23.4072 7.24497 23.3778C7.11164 22.7654 7.09934 22.1331 7.20881 21.5182C7.31827 20.9033 7.54724 20.3182 7.88235 19.7971C7.89661 19.7675 7.91703 19.7414 7.9422 19.7207C7.96737 19.7 7.99674 19.6851 8.0282 19.6771C8.05966 19.6691 8.09247 19.6682 8.12444 19.6744C8.15642 19.6807 8.18678 19.6939 8.2134 19.7132C8.24002 19.7324 8.26225 19.7573 8.27863 19.7861C8.29501 19.8149 8.30517 19.8469 8.3083 19.88C8.31144 19.913 8.30746 19.9463 8.29677 19.9775C8.28608 20.0087 8.26888 20.0371 8.24633 20.0607C7.94358 20.5312 7.73704 21.0598 7.63883 21.6152C7.54062 22.1706 7.55279 22.7416 7.67462 23.2944C7.68378 23.35 7.6726 23.4069 7.64324 23.4542C7.61388 23.5016 7.56841 23.5361 7.51541 23.5513Z" fill="white"/>
<path d="M90.339 88.3686C90.3104 88.3765 90.2792 88.3714 90.2495 88.3541C90.2098 88.3294 90.1755 88.2857 90.1535 88.2318C90.1315 88.1778 90.1234 88.1174 90.1307 88.0627C90.4374 86.3125 90.2917 84.36 89.7173 82.5241C89.7078 82.4945 89.7022 82.4634 89.7009 82.4328C89.6997 82.4021 89.7028 82.3725 89.7101 82.3456C89.7173 82.3187 89.7285 82.2951 89.7432 82.2762C89.7578 82.2572 89.7754 82.2433 89.7951 82.2352C89.8345 82.219 89.8796 82.2271 89.9206 82.2577C89.9616 82.2883 89.9951 82.3389 90.0137 82.3985C90.6189 84.3385 90.7709 86.4009 90.445 88.2486C90.4368 88.2808 90.4229 88.3085 90.4045 88.3294C90.3861 88.3502 90.3637 88.3637 90.339 88.3686Z" fill="white"/>
<path d="M26.2225 38.0059C26.0992 37.9053 25.9534 37.8362 25.7977 37.8048C25.6419 37.7734 25.481 37.7805 25.3287 37.8256C25.1765 37.8706 25.0375 37.9523 24.9239 38.0634C24.8103 38.1745 24.7254 38.3118 24.6766 38.4634C24.6238 38.678 24.5504 38.887 24.4573 39.0874C24.3098 39.3966 24.1421 39.6956 23.9553 39.9825C23.9025 40.0634 23.8421 40.137 23.7852 40.2129C23.6748 40.3205 23.5579 40.4213 23.4351 40.5145C23.386 40.5467 23.3299 40.5746 23.2823 40.6004C22.4206 40.7989 21.8498 40.4524 20.1032 39.4179C18.8379 38.6518 17.6791 40.5196 18.9106 41.3322C21.297 43.2977 23.7441 43.472 25.1718 41.7126C25.7904 40.9877 27.2252 38.7816 26.2225 38.0059Z" fill="white"/>
<path d="M35.7571 35.8942C35.7072 35.7588 35.6247 35.6379 35.5169 35.5422C35.4092 35.4465 35.2795 35.3791 35.1396 35.3459C34.9996 35.3127 34.8536 35.3149 34.7148 35.3522C34.576 35.3894 34.4487 35.4606 34.3441 35.5595C34.1457 35.7764 34.0368 36.0608 34.0394 36.3554C33.6832 38.3879 32.5931 38.9644 31.7232 38.9079C31.1452 38.8528 29.836 37.9863 28.7895 37.1371C27.8875 36.6697 27.005 37.9153 27.7125 38.6365C28.6101 39.9502 30.0361 40.9749 31.6384 41.1496C32.4325 41.1594 33.2117 40.9353 33.8794 40.5049C34.5472 40.0746 35.0741 39.4569 35.395 38.7285C35.5692 38.1853 35.6826 37.6243 35.7329 37.0557C35.7523 36.6749 35.9033 36.2578 35.7571 35.8942Z" fill="white"/>
<path d="M63.5993 28.0111C63.3967 27.9157 63.1663 27.8979 62.9518 27.9611C62.7373 28.0242 62.5533 28.164 62.4346 28.354C62.149 29.1037 62.2895 29.5075 62.1466 29.8689C61.8545 31.0294 62.0164 30.4664 61.6073 31.4029C61.4879 31.693 61.2918 31.9448 61.04 32.1309C60.8387 32.2698 60.6056 32.3553 60.3624 32.3795C59.8107 32.3871 60.0955 32.5126 59.0355 32.1086C58.8894 32.0168 58.6381 31.8685 58.5516 31.8287C57.9515 31.3157 57.4286 30.4534 56.8631 30.0908C56.0967 29.6699 55.2207 30.6333 55.6711 31.3748C57.16 34.2877 60.7115 36.1313 63.1168 33.1133C63.9388 31.8637 63.8198 31.243 64.0411 30.1884C64.0656 29.4808 64.4439 28.3842 63.5993 28.0111Z" fill="white"/>
<path d="M27.0492 63.4997C27.0329 63.4825 27.0154 63.4665 26.9966 63.4521L27.0005 63.4691L27.0492 63.4997Z" fill="white"/>
<path d="M31.9488 59.8268C31.7531 59.7682 31.5439 59.7749 31.3527 59.8459C31.1614 59.9169 30.9982 60.0483 30.8879 60.2204C30.609 60.7147 30.8438 61.3207 30.6901 61.8549C30.6387 62.3297 30.3086 63.493 29.2941 64.0103C28.6654 64.4328 27.8067 64.1407 27.2225 63.645C27.1664 63.5952 27.1046 63.5467 27.0435 63.501C27.0685 63.5191 27.0436 63.501 27.0062 63.4678L26.8931 63.3773L26.9909 63.4534C26.9583 63.428 26.9174 63.3926 26.8718 63.3494C26.5769 63.081 26.2984 62.795 26.0379 62.493C25.891 62.2185 25.7095 61.9642 25.4977 61.7363C24.8026 61.1078 23.7215 62.0078 24.1826 62.8216C25.53 65.8178 28.7315 68.2349 31.4442 65.2208C32.3122 64.1629 32.7459 62.8125 32.6572 61.4438C32.6279 60.8383 32.6639 60.0384 31.9488 59.8268Z" fill="white"/>
<path d="M50.1359 55.675C50.2356 55.4473 50.2712 55.1964 50.239 54.9495C50.2068 54.7026 50.108 54.4692 49.9532 54.2744C49.2448 53.5236 48.0221 54.1964 48.1894 55.1943C48.1806 55.2925 48.1923 55.3916 48.2237 55.4851C48.238 55.5475 48.2524 55.6099 48.2668 55.6723C48.2599 55.8232 48.253 55.9742 48.2404 56.1264C48.1868 56.9273 47.6287 58.0056 47.3948 58.4627C47.3417 58.5484 47.2844 58.6314 47.223 58.7113C47.1699 58.7688 47.114 58.8236 47.0555 58.8753C46.5061 59.19 46.7821 59.0966 45.9069 59.2623C45.8056 59.2617 45.6599 59.2624 45.5328 59.2528C45.3619 59.2099 45.1937 59.1569 45.0291 59.094C44.4114 58.7374 44.6106 58.8917 43.9045 58.0865C43.557 57.66 43.2699 57.1873 43.0515 56.6819C42.9596 56.5228 42.8255 56.3924 42.664 56.3053C42.5026 56.2183 42.3202 56.1781 42.1374 56.1891C41.9546 56.2002 41.7786 56.2622 41.6291 56.368C41.4796 56.4739 41.3625 56.6196 41.2909 56.7886C41.1426 56.7569 40.989 56.7615 40.843 56.8019C40.6969 56.8423 40.5627 56.9173 40.4518 57.0207C40.1178 57.3276 40.1359 57.7684 40.1659 58.1827C40.1732 58.6615 40.1452 59.1402 40.0821 59.6147C39.7477 60.6177 39.8252 60.4505 39.4438 61.0939C39.0779 61.4947 39.0093 61.7136 38.0614 61.8871L37.951 61.8856C37.2061 61.8809 36.4471 61.4015 35.66 60.6837C35.4305 60.454 35.2153 60.2103 35.0159 59.9539C35.0149 59.9442 35.0127 59.9347 35.0094 59.9255C34.8674 59.7222 34.7975 59.4575 34.5727 59.3211C33.8189 58.6315 32.6272 59.6197 33.1327 60.5099C34.5357 63.58 38.1887 65.8512 40.8903 62.8666C41.7729 61.8927 42.0904 60.5711 42.1098 59.2853L42.1108 59.2253C42.7079 60.2676 43.5035 61.1777 44.6339 61.6163C46.5591 62.2244 48.8304 61.2475 49.6122 59.3709C50.1315 58.2537 50.0235 56.9703 50.1813 55.7691C50.178 55.7549 50.1761 55.7464 50.1735 55.7351C50.1793 55.6053 50.1856 55.568 50.1359 55.675Z" fill="white"/>
<path d="M37.8427 83.5385C37.646 83.4457 37.4223 83.4283 37.2139 83.4895C37.0055 83.5507 36.8267 83.6863 36.7112 83.8707C36.5109 84.2155 36.56 84.6612 36.4974 85.0609C36.5045 85.0145 36.5099 84.9864 36.4882 85.0212C36.2523 85.9865 36.2788 86.0372 35.8202 86.7073L35.8037 86.726C35.5867 87.0008 35.3236 87.2352 35.026 87.4188C34.9534 87.4654 34.8495 87.5312 34.7509 87.5808L34.7198 87.5879C34.5782 87.5847 34.4391 87.5749 34.3024 87.5586L34.252 87.5463C34.0555 87.4955 33.8627 87.4311 33.6751 87.3535L33.5349 87.2873C33.5179 87.2912 33.4575 87.2483 33.3383 87.1832C32.5893 86.6955 32.8224 86.8808 32.4121 86.4556C32.4069 86.4329 32.3847 86.4141 32.3745 86.3955C32.3715 86.3763 32.3671 86.3574 32.3614 86.3388C32.3403 86.2531 32.3102 86.17 32.2716 86.0907C32.2598 86.0396 32.2339 85.9918 32.2158 85.9392C31.3309 84.4733 29.248 85.9714 30.3722 87.2747C30.9782 87.7744 30.8351 87.9925 32.1009 89.1228C33.8302 90.6243 35.9772 90.348 37.2263 88.4206C37.8605 87.492 38.0965 86.3594 38.2483 85.2611C38.3559 84.6689 38.5503 83.8206 37.8427 83.5385Z" fill="white"/>
<path d="M47.3806 81.0408C47.2895 80.9495 47.1794 80.8796 47.0582 80.8361C46.9371 80.7926 46.8079 80.7765 46.6799 80.7891C46.5519 80.8018 46.4283 80.8427 46.3181 80.909C46.2078 80.9753 46.1137 81.0654 46.0424 81.1727C45.7867 81.7423 45.9384 82.466 45.8563 82.5745C45.6497 83.3569 45.6096 84.4235 44.5592 85.2627C44.4866 85.3073 44.4115 85.3476 44.3341 85.3832L44.2522 85.4021C44.1674 85.4216 44.0826 85.4412 43.995 85.4613C43.9074 85.4815 43.8566 85.4544 43.8074 85.4478L43.629 85.3963C43.5503 85.3517 43.4637 85.3118 43.3974 85.2823C43.3311 85.2527 43.189 85.178 43.0866 85.1209C42.908 84.9596 42.7178 84.8117 42.5176 84.6784L42.4232 84.6046C41.7744 84.061 42.2042 84.416 41.2566 83.5828L41.333 83.6429C40.8666 83.2067 41.2149 83.4013 40.6961 82.8666C39.9192 82.1674 38.716 83.1702 39.231 84.0761C39.3535 84.3108 40.129 86.5934 41.8787 87.2538C41.9435 87.2897 42.0411 87.3389 42.1409 87.3846C43.1073 87.9118 45.0657 88.3152 46.4126 86.8252C46.6151 86.6092 46.7896 86.3684 46.9318 86.1083C47.0519 85.8417 47.1314 85.683 46.9611 86.0418L47.0513 85.8777C47.3075 85.4164 47.4686 84.908 47.5253 84.3826C47.5344 84.3269 47.5403 84.2707 47.543 84.2143C47.6362 83.6943 47.6572 83.1638 47.6055 82.6378C47.5793 82.4078 47.5767 82.28 47.595 82.5924C47.5974 82.4993 47.5976 82.4096 47.5971 82.3171C47.5843 81.887 47.7157 81.3848 47.3806 81.0408Z" fill="white"/>
<path d="M76.2469 72.9786C76.1163 72.9158 75.9723 72.8866 75.8278 72.8937C75.6833 72.9008 75.543 72.944 75.4194 73.0193C75.2958 73.0946 75.1929 73.1997 75.1201 73.325C75.0473 73.4503 75.0068 73.592 75.0023 73.7371C75.0075 73.7598 75.0134 73.7853 75.0045 73.8112C74.9956 73.8372 74.9962 74.2015 74.9747 74.3408C74.9419 75.1312 74.7994 75.9129 74.5515 76.6635C74.1108 77.7476 73.6473 78.1769 72.4961 78.0746C72.2661 78.043 72.0406 77.9836 71.8247 77.8976C71.2796 77.5721 71.5864 77.8062 70.9785 77.2203C70.3583 76.5298 70.4088 76.6197 69.9024 75.5834C69.8466 75.4089 69.7375 75.2564 69.5907 75.1474C68.943 74.5438 67.8301 75.254 68.0543 76.0985C68.4506 77.2788 69.137 78.3402 70.0502 79.1844C70.4542 79.6243 70.9502 79.9691 71.5025 80.1941C74.0568 81.1442 76.0882 79.1382 76.4456 76.6843C76.6242 75.8189 76.6365 74.9289 76.7329 74.0555C76.7963 73.8476 76.7819 73.6235 76.6924 73.4253C76.603 73.227 76.4445 73.0682 76.2469 72.9786Z" fill="white"/>
</svg>
