<svg width="81" height="102" viewBox="0 0 81 102" fill="none" xmlns="http://www.w3.org/2000/svg">
<path d="M32.1693 69.8193C19.7848 67.7885 8.63969 59.7745 3.37729 48.9532C-2.25095 37.3765 -0.727115 22.9618 7.16647 13.0862C15.9567 2.10418 27.7615 -1.9763 42.2447 0.992569C51.7204 2.93436 64.5135 9.60407 69.3997 22.014C74.2162 34.2693 72.9416 46.8926 65.8805 56.6511C61.0532 63.3201 54.9391 67.6294 47.6986 69.4682C41.8704 70.9476 36.9633 70.4115 34.607 70.1564L34.3152 70.1264C33.5913 70.0525 32.8861 69.9369 32.1693 69.8193ZM40.0134 1.94869C26.7965 -0.218636 16.3785 3.71321 8.20858 13.9345C0.632623 23.4116 -0.826701 37.2519 4.57683 48.371C9.94504 59.3977 21.6705 67.4203 34.4545 68.7885L34.7463 68.8184C39.4844 69.3358 53.9065 70.9039 64.7932 55.861C71.5771 46.4898 72.8015 34.3358 68.148 22.516C63.4621 10.6045 51.1115 4.20428 41.9682 2.31699C41.3265 2.17595 40.6579 2.05438 40.0134 1.94869Z" fill="white"/>
<path d="M53.9402 37.4863C51.995 37.4232 50.0163 37.3637 48.1406 37.8421C46.2649 38.3204 44.4693 39.4201 43.6638 41.1097C42.3191 43.9395 44.038 47.5125 42.6074 50.3011C40.942 53.557 36.0619 53.9131 33.6547 56.7041C33.4708 56.8845 33.3241 57.0999 33.2231 57.3376C33.1221 57.5753 33.0688 57.8307 33.0663 58.0891C33.1313 58.4952 33.3287 58.8676 33.6272 59.1476C35.5482 61.179 38.9593 60.7868 41.6368 59.8799C43.3089 59.314 45.3017 58.6501 46.7466 59.67C47.0223 59.917 47.3311 60.1238 47.664 60.2841C48.3086 60.5042 48.9874 60.1157 49.544 59.7433C52.0336 58.0889 54.7113 56.1793 55.3715 53.3367C55.8448 51.3246 55.2905 48.9332 56.7105 47.3925C57.7381 46.2782 59.479 46.0398 60.622 45.0228C62.19 43.6358 62.1247 41.0295 60.773 39.4227C59.4213 37.816 57.1324 37.5912 53.9402 37.4863Z" fill="white"/>
<path d="M36.3196 61.1372C35.1378 60.9746 34.0442 60.42 33.2111 59.5607C32.8088 59.1751 32.5494 58.6621 32.4757 58.1066C32.4181 57.4979 32.6776 56.8752 33.2209 56.2241C34.3872 54.8692 36.0418 54.0678 37.6411 53.2962C39.4863 52.4002 41.2267 51.5649 42.044 49.9849C42.6814 48.741 42.6055 47.2662 42.5257 45.707C42.4391 44.0806 42.3524 42.4003 43.0864 40.8576C43.9025 39.1396 45.6862 37.823 47.9794 37.2371C49.9528 36.7367 51.976 36.8018 53.9342 36.8652C57.1239 36.9687 59.6849 37.1939 61.2254 39.0257C62.8774 40.9926 62.7887 43.9776 61.003 45.5426C60.3965 46.0293 59.7226 46.4237 59.0029 46.7129C58.2931 47.04 57.6184 47.3518 57.1632 47.8465C56.3975 48.6769 56.3267 49.9058 56.253 51.2062C56.2311 51.9631 56.1442 52.7168 55.9934 53.459C55.289 56.4509 52.5975 58.4517 49.9004 60.2508C49.4334 60.5638 48.457 61.2127 47.4453 60.864C47.1326 60.7448 46.8445 60.5685 46.5953 60.3441L46.3662 60.1657C45.1979 59.3418 43.4342 59.9396 41.8814 60.464C40.4673 60.9393 38.3147 61.4643 36.3196 61.1372ZM57.1872 38.4654C56.0904 38.3149 54.9851 38.2337 53.8779 38.2224C52.0113 38.162 50.083 38.0975 48.2921 38.553C46.3866 39.0376 44.9241 40.0982 44.2819 41.4432C43.6965 42.6777 43.7723 44.1165 43.8492 45.6393C43.9373 47.3108 44.0279 49.0397 43.2246 50.607C42.2068 52.5946 40.1786 53.5745 38.2153 54.5201C36.6705 55.2676 35.2129 55.9725 34.2269 57.1143C33.98 57.3406 33.8278 57.6533 33.8015 57.9884C33.8549 58.2431 33.9863 58.4743 34.1771 58.6493C36.1226 60.7093 39.9066 59.7237 41.4439 59.2027C43.2071 58.6079 45.4043 57.8654 47.106 59.0764C47.2068 59.1499 47.3042 59.2258 47.404 59.3051C47.5359 59.4268 47.6857 59.5271 47.8481 59.6026C48.1971 59.7198 48.694 59.4417 49.1379 59.1429C51.7107 57.4313 54.0692 55.6875 54.6594 53.1743C54.7927 52.5102 54.8685 51.8359 54.886 51.1589C54.972 49.6747 55.057 48.1424 56.1687 46.9583C56.8048 46.2655 57.6336 45.8831 58.4335 45.5138C59.0336 45.272 59.5976 44.9469 60.1091 44.548C61.3215 43.4733 61.3581 41.3128 60.1882 39.9194C59.5088 39.0828 58.4912 38.6792 57.1872 38.4654Z" fill="white"/>
<path d="M42.921 14.1308C43.1447 12.8936 43.1906 11.6509 42.5101 10.4606C41.5713 8.82886 39.3014 8.06651 37.7391 7.09507C36.8465 6.5674 36.0583 5.88222 35.4136 5.07341C34.8752 4.31584 34.4416 3.49024 34.1242 2.61872C33.8973 2.04065 33.6831 1.38486 33.4087 0.751704C23.4032 0.588755 15.662 4.36445 9.61704 10.6024C9.45363 11.9441 8.53647 13.3956 7.81951 14.6434C6.61308 16.7509 6.01454 19.2566 6.61072 21.6154C7.20689 23.9741 9.14968 26.1133 11.6477 26.6471C14.0799 27.1641 16.5245 26.17 18.987 25.9029C20.8065 25.7078 22.648 25.9089 24.3831 26.4922C26.2164 27.0899 27.8617 28.1523 29.1559 29.5743C29.7548 30.2636 30.2577 31.0111 30.9004 31.6514C33.7197 34.4397 39.2405 33.9411 41.3354 30.7026C43.7867 26.9254 41.4227 21.9596 41.9761 17.5313C42.1426 16.3619 42.4602 15.219 42.921 14.1308Z" fill="white"/>
<path d="M34.7787 34.0509C33.2957 33.8292 31.9169 33.1612 30.8344 32.1399C30.4342 31.7353 30.06 31.3069 29.714 30.8571C29.4837 30.5688 29.2632 30.294 29.0311 30.0349C27.7973 28.6984 26.2286 27.6994 24.482 27.1378C22.8148 26.5886 21.0481 26.3994 19.3044 26.5835C18.5246 26.6648 17.7199 26.8246 16.9396 26.9825C15.2271 27.3234 13.4555 27.6753 11.659 27.2952C8.99981 26.7295 6.73542 24.5106 6.02584 21.7716C5.42211 19.4361 5.87359 16.7932 7.30218 14.3194L7.54897 13.9002C8.18384 12.8256 8.90137 11.5966 9.02905 10.542C9.04592 10.399 9.11015 10.2657 9.21199 10.1624C15.8859 3.37716 24.1516 0.0236811 33.7792 0.19684C33.9097 0.197776 34.0374 0.235659 34.1469 0.305911C34.2564 0.376162 34.343 0.475773 34.3962 0.592699C34.575 0.993297 34.7258 1.39817 34.8732 1.78772C34.9613 2.02318 35.0469 2.25529 35.1374 2.4764C35.4385 3.28941 35.8489 4.06031 36.3578 4.7687C36.9617 5.51302 37.7004 6.14268 38.5367 6.62589C38.9419 6.87799 39.4068 7.11629 39.8966 7.36753C41.2627 8.07187 42.8095 8.87065 43.606 10.233C44.4461 11.6791 44.3282 13.1892 44.1126 14.3384C44.104 14.3826 44.0908 14.4259 44.0733 14.4675C43.6295 15.5017 43.3254 16.589 43.1688 17.702C42.9707 19.2962 43.1845 21.0285 43.3926 22.704C43.7489 25.5913 44.1187 28.581 42.4537 31.1162C41.3599 32.7815 39.3978 33.8713 37.078 34.1067C36.3133 34.1907 35.5397 34.1719 34.7787 34.0509ZM22.7939 25.3611C23.5117 25.4777 24.2189 25.6518 24.9083 25.8817C26.8804 26.5191 28.651 27.6497 30.0435 29.1607C30.2978 29.45 30.5498 29.7536 30.7772 30.0413C31.092 30.4483 31.4314 30.8365 31.7936 31.204C33.021 32.4042 34.9421 32.9992 36.9246 32.7968C38.8084 32.6077 40.4459 31.7123 41.3062 30.4035C42.7082 28.2761 42.3883 25.6452 42.0419 22.8626C41.8255 21.1092 41.6009 19.2955 41.816 17.5421C41.9844 16.3394 42.309 15.1638 42.782 14.0436C42.9424 13.065 43.0334 11.9396 42.4234 10.8936C41.8134 9.84771 40.5255 9.20039 39.2679 8.55215C38.7755 8.29756 38.2694 8.03481 37.817 7.7573C36.8385 7.18879 35.9756 6.4477 35.2725 5.57201C34.6892 4.7678 34.2178 3.89174 33.8711 2.96712C33.7791 2.73692 33.689 2.49524 33.5939 2.24686C33.4988 1.99848 33.4137 1.7635 33.3177 1.52086C24.343 1.4695 16.6181 4.63468 10.3491 10.9382C10.1435 12.1922 9.39091 13.4508 8.73334 14.5718L8.49093 14.9829C7.23293 17.134 6.83309 19.4435 7.34953 21.4465C7.93611 23.7027 9.78257 25.526 11.946 25.9868C13.471 26.3106 15.0189 25.9986 16.6659 25.6705C17.477 25.5088 18.3116 25.351 19.1489 25.2496C20.3622 25.1248 21.5885 25.1623 22.7939 25.3611Z" fill="white"/>
<path d="M7.54561 95.1124C7.43457 95.0941 7.33002 95.0477 7.24171 94.9775C7.15339 94.9072 7.08421 94.8154 7.04061 94.7107C6.8441 94.2875 6.7368 93.8274 6.7255 93.3595C6.71421 92.8915 6.79914 92.4259 6.97495 91.9922C7.45283 90.8912 8.57167 90.0157 10.2972 89.3931C11.4248 89.0436 12.5815 88.8002 13.7526 88.666C17.2742 88.1333 21.2647 87.5332 23.411 83.5468C24.3044 81.8882 24.6467 80.0369 25.0106 78.0718C25.1615 77.2602 25.3167 76.4222 25.513 75.606C25.5351 75.5134 25.5762 75.4264 25.6337 75.3508C25.6912 75.2752 25.7637 75.2127 25.8466 75.1673C25.9294 75.1214 26.0208 75.0938 26.1149 75.0864C26.2089 75.079 26.3033 75.0919 26.3918 75.1243C27.7949 75.6342 33.1923 76.772 35.6331 77.0098C35.8083 77.0269 35.9694 77.1131 36.0817 77.2498C36.194 77.3864 36.2483 77.5625 36.2329 77.7399C36.1373 78.9036 35.9663 79.9827 35.8039 81.0271C35.5358 82.492 35.38 83.9752 35.3381 85.4635C35.3306 86.4882 35.3501 87.403 35.7154 88.1849C36.2436 89.3155 40.599 91.4949 43.4813 92.9393C45.7316 94.0665 47.1426 94.7822 47.7152 95.2792C50.1853 97.4232 49.5437 98.8885 48.9959 100.162C48.929 100.316 48.8582 100.476 48.7927 100.64C48.7345 100.782 48.6306 100.9 48.4979 100.975C48.3653 101.049 48.2116 101.077 48.0619 101.052C42.0422 100.065 34.7688 99.053 27.7367 98.0744C20.7046 97.0957 13.5046 96.0895 7.54561 95.1124ZM26.6559 76.6147C26.5371 77.1759 26.4314 77.7482 26.328 78.3059C25.9613 80.2886 25.5806 82.3381 24.5884 84.1821C22.1221 88.7598 17.3962 89.4741 13.948 89.9947C12.8633 90.1186 11.7913 90.3395 10.7445 90.6548C9.40098 91.1415 8.52084 91.7944 8.20241 92.5214C8.0312 92.9406 8.01373 93.4073 8.15317 93.8371C14.0166 94.7986 21.0791 95.7732 27.8988 96.723C34.7186 97.6729 41.8062 98.6576 47.7405 99.6217L47.7443 99.5983C48.2579 98.4249 48.5416 97.7825 46.8237 96.2914C46.3505 95.8768 44.6514 95.0326 42.8684 94.1385C38.386 91.8992 35.1624 90.1972 34.4897 88.7511C34.0031 87.7116 33.9724 86.5934 33.9831 85.4399C34.0275 83.8831 34.1885 82.3315 34.4647 80.7985C34.5988 79.9811 34.7367 79.1402 34.8214 78.2606C32.0713 77.8689 29.3461 77.3186 26.6593 76.6123L26.6559 76.6147Z" fill="white"/>
<path d="M4.2702 62.7481C4.14178 62.7282 4.02152 62.6732 3.92355 62.5895C3.82558 62.5058 3.75396 62.3969 3.71713 62.2756C3.6803 62.1543 3.67979 62.0257 3.71563 61.9049C3.75148 61.784 3.82221 61.676 3.9195 61.5934C4.68591 60.916 5.55779 60.0765 6.4004 59.2675C7.24301 58.4585 8.13389 57.5956 8.91246 56.8997C9.04563 56.7818 9.22208 56.7207 9.40296 56.7297C9.58385 56.7387 9.75437 56.817 9.877 56.9475C9.99963 57.078 10.0643 57.25 10.0569 57.4255C10.0494 57.6011 9.97042 57.766 9.83725 57.8838C9.07083 58.5611 8.19942 59.3978 7.35634 60.2097C6.51326 61.0215 5.62285 61.8815 4.84429 62.5775C4.76885 62.6468 4.67786 62.6983 4.57833 62.7278C4.4788 62.7574 4.37339 62.7643 4.2702 62.7481Z" fill="white"/>
<path d="M60.7416 11.4744C60.6164 11.4547 60.4986 11.4033 60.4009 11.3258C60.3032 11.2482 60.2295 11.1475 60.1876 11.0346C60.1458 10.9217 60.1374 10.8008 60.1634 10.6851C60.1895 10.5694 60.2489 10.4632 60.3353 10.3781C61.0258 9.68504 62.04 8.871 63.0184 8.08591C63.7972 7.45949 64.6008 6.81395 65.2316 6.23869C65.2965 6.17944 65.3735 6.13302 65.4581 6.10208C65.5428 6.07114 65.6335 6.05629 65.725 6.05837C65.8165 6.06045 65.9071 6.07942 65.9915 6.1142C66.076 6.14899 66.1527 6.1989 66.2172 6.26109C66.2817 6.32328 66.3328 6.39654 66.3676 6.47667C66.4024 6.5568 66.4202 6.64225 66.4199 6.72812C66.4197 6.81399 66.4014 6.89862 66.3661 6.97716C66.3309 7.0557 66.2793 7.12662 66.2144 7.18587C65.5543 7.78824 64.7328 8.44825 63.9367 9.08631C62.9866 9.84995 62.0011 10.6397 61.3636 11.2748C61.287 11.3544 61.1899 11.4144 61.0813 11.4493C60.9727 11.4841 60.8559 11.4928 60.7416 11.4744Z" fill="white"/>
<path d="M32.692 78.0177C20.0423 75.9433 9.12042 68.8947 3.83368 62.5778C3.72012 62.4414 3.66551 62.2657 3.68189 62.0893C3.69827 61.9129 3.78429 61.7504 3.92103 61.6374C4.05776 61.5244 4.23401 61.4701 4.41099 61.4867C4.58798 61.5032 4.75122 61.5891 4.86478 61.7255C10.6286 68.6121 23.3135 76.3969 37.5502 77.2187C48.6356 77.8524 58.7765 74.1363 66.8764 66.4502C74.6602 59.0616 79.6419 45.5325 78.9919 33.5519C78.5838 26.0574 75.855 15.4114 65.1797 7.2576C65.1012 7.208 65.0339 7.14265 64.9821 7.06573C64.9304 6.9888 64.8953 6.90199 64.879 6.81082C64.8628 6.71965 64.8658 6.62614 64.8879 6.53624C64.9099 6.44634 64.9505 6.36203 65.0071 6.28869C65.0637 6.21535 65.1351 6.15459 65.2166 6.11029C65.2981 6.06598 65.388 6.0391 65.4805 6.03136C65.5731 6.02363 65.6663 6.0352 65.7541 6.06535C65.842 6.0955 65.9226 6.14356 65.9908 6.20647C77.0816 14.6712 79.9028 25.7142 80.3244 33.4892C81.114 47.9705 74.5998 60.97 67.7982 67.4243C59.4238 75.3703 48.9282 79.2207 37.473 78.5589C35.871 78.4623 34.2751 78.2817 32.692 78.0177Z" fill="white"/>
<path d="M7.63524 92.6308C7.57876 92.6217 7.52788 92.5916 7.49312 92.5469C7.45835 92.5022 7.44236 92.4462 7.44843 92.3906C7.45548 92.3327 7.48555 92.2801 7.53213 92.2442C7.57871 92.2082 7.63803 92.1918 7.6972 92.1985C21.153 93.7615 34.7478 95.7288 48.1084 98.0536C48.1375 98.0584 48.1653 98.0688 48.1902 98.0842C48.2152 98.0996 48.2368 98.1198 48.2537 98.1435C48.2706 98.1671 48.2825 98.1938 48.2888 98.222C48.295 98.2502 48.2954 98.2793 48.29 98.3076C48.2755 98.3623 48.2416 98.41 48.1944 98.4423C48.1471 98.4745 48.0895 98.4892 48.032 98.4836C34.6858 96.1612 21.1026 94.1958 7.65551 92.6342L7.63524 92.6308Z" fill="white"/>
<path d="M3.91377 36.479C3.86568 36.4709 3.82144 36.448 3.78786 36.4136C3.75428 36.3793 3.7332 36.3354 3.72783 36.2888C3.41784 33.5083 3.65281 30.7035 4.42052 28.0201C4.43689 27.9657 4.47459 27.9199 4.52571 27.8921C4.57683 27.8644 4.63741 27.8568 4.69477 27.8711C4.72325 27.8789 4.74991 27.8921 4.77318 27.9099C4.79645 27.9277 4.81587 27.9496 4.83033 27.9746C4.84478 27.9995 4.85397 28.0269 4.85737 28.0551C4.86077 28.0833 4.85831 28.1118 4.85013 28.139C4.09551 30.7707 3.8633 33.5218 4.16557 36.2494C4.16861 36.2774 4.16587 36.3056 4.15753 36.3325C4.14918 36.3594 4.13539 36.3843 4.11693 36.4059C4.09847 36.4275 4.0757 36.4454 4.04994 36.4584C4.02418 36.4715 3.99595 36.4795 3.96682 36.482C3.94911 36.4833 3.93127 36.4823 3.91377 36.479Z" fill="white"/>
<path d="M6.27559 33.7456C6.24174 33.7399 6.21053 33.7228 6.1857 33.6964C6.16087 33.6701 6.14347 33.6356 6.13559 33.5971C5.98574 32.8841 6.03226 32.1234 6.26875 31.4196C6.28758 31.3677 6.32263 31.3253 6.36654 31.3013C6.41045 31.2773 6.45982 31.2735 6.50426 31.2908C6.54834 31.3088 6.58356 31.3468 6.60222 31.3964C6.62087 31.446 6.62143 31.5032 6.60377 31.5555C6.39057 32.1797 6.34798 32.856 6.482 33.4892C6.49289 33.5418 6.48532 33.5982 6.46093 33.6465C6.43653 33.6947 6.39727 33.7308 6.35161 33.7469C6.32618 33.7519 6.30041 33.7515 6.27559 33.7456Z" fill="white"/>
<path d="M67.0702 31.8581C67.0221 31.8498 66.9783 31.8249 66.9456 31.7871C66.913 31.7494 66.8932 31.701 66.8894 31.6496C66.767 29.4466 66.4438 27.2654 65.9244 25.1363C65.9104 25.0775 65.9191 25.0148 65.9484 24.9618C65.9778 24.9089 66.0255 24.8699 66.0811 24.8535C66.1088 24.8447 66.1377 24.842 66.1662 24.8454C66.1946 24.8488 66.222 24.8583 66.2467 24.8733C66.2714 24.8883 66.2928 24.9085 66.3098 24.9327C66.3267 24.9569 66.3388 24.9845 66.3453 25.014C66.8736 27.1706 67.2048 29.3799 67.3343 31.6114C67.3373 31.6729 67.3173 31.7335 67.2787 31.7803C67.24 31.8271 67.1857 31.8562 67.1277 31.8614L67.0702 31.8581Z" fill="white"/>
<path d="M64.8332 22.7544C64.796 22.7491 64.7611 22.733 64.732 22.7075C64.7028 22.682 64.6806 22.6481 64.6674 22.6092L63.6973 19.8473C63.6836 19.8173 63.6757 19.7842 63.6742 19.7501C63.6727 19.716 63.6777 19.6817 63.6887 19.6493C63.6998 19.617 63.7167 19.5873 63.7384 19.5622C63.7601 19.5372 63.7861 19.5172 63.8146 19.5038C63.8432 19.4903 63.8738 19.4836 63.9044 19.484C63.935 19.4844 63.9649 19.492 63.9923 19.5063C64.0196 19.5205 64.0438 19.5412 64.0632 19.5668C64.0826 19.5924 64.0968 19.6226 64.105 19.6552L65.0751 22.4171C65.0931 22.4748 65.0903 22.5388 65.0673 22.596C65.0444 22.6532 65.0031 22.6992 64.9518 22.7247C64.9154 22.7477 64.874 22.7581 64.8332 22.7544Z" fill="white"/>
<path d="M34.6606 77.7954C34.0498 77.5255 33.3669 77.75 32.7209 77.6768C32.8074 77.6761 33.1677 77.6935 33.017 77.6866C32.1095 77.5378 31.2167 77.317 30.323 77.1019C28.6497 76.7382 28.0785 76.4629 27.7148 76.2842C27.3272 76.0152 26.9148 75.7153 26.4112 75.7905C25.2477 75.8767 24.7607 77.485 25.6852 78.2024C27.6781 79.6309 30.1723 79.891 32.5205 80.3148C33.5571 80.6574 34.8222 81.0227 35.4015 79.7957C35.5656 79.4318 35.5799 79.0179 35.4412 78.6436C35.3026 78.2693 35.0222 77.9646 34.6606 77.7954Z" fill="white"/>
<path d="M66.0627 54.0183C65.4794 53.5445 63.3436 55.8561 62.9153 56.307C62.217 56.9339 62.111 57.0356 61.3588 57.7191C58.9197 59.8828 56.4341 61.8036 53.9488 63.0873C47.7536 66.3679 38.9938 67.4207 31.5164 65.8104C29.43 65.3074 27.3897 64.6292 25.4174 63.7831C22.6139 62.5224 19.9944 60.9018 17.3807 59.2822C13.6857 56.994 8.30904 52.977 5.74887 48.9068C2.93695 44.9918 3.01195 48.184 3.83607 49.6769C4.78942 51.453 6.16227 52.9406 7.56587 54.3677C8.8827 55.7132 10.295 56.9617 11.7917 58.1037C11.5957 58.2804 11.4718 58.5232 11.4436 58.7855C11.4155 59.0479 11.485 59.3114 11.6389 59.5257C14.008 62.7637 18.9871 65.2654 23.4952 66.8622C29.3745 69.1394 35.8053 69.6877 42.066 69.0767C44.5889 68.9196 47.0904 68.5161 49.5347 67.8718C51.0011 67.4811 52.3858 66.8268 53.8095 66.3337C55.7777 65.4982 57.4426 64.7142 58.6535 63.7397C58.9002 63.5241 59.2235 63.3686 59.3874 63.0769C59.5003 62.9077 59.5583 62.7078 59.5532 62.5045C59.5482 62.3011 59.4805 62.1043 59.3593 61.9409C59.3119 61.8811 59.2592 61.8256 59.2019 61.7751C60.6555 60.6825 62.0513 59.506 63.4224 58.2987C64.1324 57.5278 67.0297 55.1118 66.0627 54.0183Z" fill="white"/>
</svg>
